<?xml version="1.0" encoding="UTF-8"?>
<!DOCTYPE svg PUBLIC "-//W3C//DTD SVG 1.1//EN" "http://www.w3.org/Graphics/SVG/1.1/DTD/svg11.dtd">
<!-- Creator: CorelDRAW X7 -->
<svg xmlns="http://www.w3.org/2000/svg" xml:space="preserve" width="61.6898mm" height="49.69mm" version="1.1" style="shape-rendering:geometricPrecision; text-rendering:geometricPrecision; image-rendering:optimizeQuality; fill-rule:evenodd; clip-rule:evenodd"
viewBox="0 0 6169 4969"
 xmlns:xlink="http://www.w3.org/1999/xlink">
 <defs>
  <style type="text/css">
   <![CDATA[
    .str0 {stroke:black;stroke-width:7.62}
    .fil0 {fill:black}
   ]]>
  </style>
 </defs>
 <g id="Layer_x0020_1">
  <metadata id="CorelCorpID_0Corel-Layer"/>
  <g id="_2295617491808">
   <path class="fil0 str0" d="M3522 2470c-10,5 1,-3 -14,11l-37 41c-18,21 -24,36 -44,58l-289 332 128 -417 -247 -3 56 -144c-6,-4 -16,-7 -27,-15 -55,-39 -40,-158 -40,-252 29,9 47,4 76,5 58,2 80,12 81,-43 0,-6 -1,-12 0,-27 1,-34 3,-21 5,-57l247 -1c38,0 52,-7 67,18 23,41 -14,105 -5,199 12,124 55,51 169,77 0,21 1,45 -1,66 -3,45 -6,84 -56,79l-26 102c-37,37 25,29 -48,29 13,5 -9,27 4,-8 19,-48 -10,-20 16,-37 -13,-16 -1,-14 -15,-13zm-393 2043c22,9 24,16 34,24 -13,29 -2,33 -20,59 -7,11 -30,12 -10,12l10 50c7,-13 -9,-8 29,6 33,13 140,9 192,-6 76,-117 9,-668 37,-852 71,-4 150,5 210,-13 16,-31 26,-74 17,-123 -12,-59 -34,-37 -77,-62 0,-65 -4,-23 45,-51 28,-16 34,-35 35,-80 1,-37 -2,-67 -29,-85 -51,-32 -51,13 -51,-56 57,-29 80,-1 80,-101 -1,-92 -20,-68 -79,-101 -1,-78 44,-29 216,-112 59,-29 106,-54 152,-101l31 -27c17,-12 3,-4 17,-9 10,-19 24,-30 28,-56 -7,-41 -18,-80 -18,-159l0 -751 138 44c19,-66 51,-19 53,-141 0,-53 5,-118 -24,-155 -45,-58 -233,-28 -321,-34l-2 -751c-32,31 -14,-4 -23,50l0 657 -93 5c-78,0 -48,15 -104,-5 -14,-76 -12,-626 5,-696 4,-2 10,-2 12,-3 2,0 5,-1 7,-1l24 -14c1,-1 3,-3 5,-4 52,-29 85,18 114,-32 -79,0 -173,-22 -201,43l-6 749c-45,22 -545,22 -595,4 -24,-173 28,-632 -13,-757 -18,-52 -47,-40 -114,-40 -65,1 -77,-3 -124,19 -47,174 17,575 -15,775 -67,6 -241,-10 -289,12 -60,28 -70,190 -42,253 27,63 44,4 44,105 -1,202 -24,542 46,714 36,86 66,126 123,181 120,118 206,141 395,198l-1 39c-50,28 -79,-3 -79,101 0,103 24,73 79,101 2,70 -1,24 -51,56 -24,16 -27,42 -28,75 -3,141 72,58 80,131 -19,43 -49,0 -72,56 -12,28 -11,95 1,119 29,56 160,29 223,34l-1 706z"/>
   <path class="fil0 str0" d="M5664 2085c-6,251 32,323 -15,625l-45 185c6,39 -24,152 -47,188 -34,152 -138,353 -210,478 -63,110 -213,335 -291,389 -5,18 5,8 -15,32 -18,23 -14,18 -31,20 -45,68 -160,170 -227,221 15,1 21,14 26,18l-61 24 16 50c0,0 -14,6 21,23 27,14 154,1 202,1l-6 67 -192 -14c-12,36 1,114 -28,143 -48,47 33,-7 -13,9 -28,-15 -42,-39 -58,-29l-69 59c-1,-6 -2,-27 -2,-28 -9,-45 -23,-37 -41,-40l-17 -20c1,-2 4,-5 5,-7l46 -43c-22,-53 -35,-20 -35,-20 5,-23 -7,-31 -11,-36l-20 7c-22,50 -426,217 -464,230 -176,61 -378,114 -579,129l0 269c628,-45 1254,-347 1676,-794 285,-302 490,-616 624,-1022 12,-36 52,-186 63,-207l33 -171 0 -20c-39,31 -12,-7 -27,35 -11,30 -3,8 7,15 0,-130 7,-107 -28,-119 -28,-10 -95,0 -149,4l2 -225c14,-87 -13,-32 34,-54l-8 -61c-14,-70 19,-127 -22,-161l0 -80c5,2 1,3 1,3 0,0 -2,30 -7,-2 0,-2 -3,-1 -5,-1 1,-36 7,-39 -3,-63 -18,-44 -16,42 -19,-39l-11 32z"/>
   <path class="fil0 str0" d="M2115 -69c-11,102 49,4 2,43 61,6 74,-60 74,168 -95,-1 -55,-13 -118,43l-39 28 -3 -61c-63,0 -80,-10 -136,-10l0 -13c53,-24 63,-79 107,-85 -16,-24 -16,-37 10,-59l-191 101c27,9 -37,31 40,2 2,26 6,45 7,47 17,70 17,137 -7,202 -32,-1 -43,17 -71,41 2,58 14,11 -6,58 31,-9 150,-97 191,-125 66,-44 134,-80 208,-116 77,-38 140,-68 223,-100 53,-20 203,-60 235,-79 3,-34 -1,-30 34,-39l4 -148 -97 -20c-41,-14 6,21 -18,-14 49,27 0,2 105,-3l-37 10c27,-31 29,-33 61,-26 73,16 51,9 140,9 3,-36 3,-57 39,-68 33,-10 139,1 166,5l42 8c27,0 13,5 23,-9 -50,0 -53,10 -95,11 -2,46 -6,26 -10,67l-161 0c21,38 -7,23 41,23 222,-2 41,26 214,24l293 0c176,2 34,-27 190,-25 41,0 52,8 76,-22l-161 0c-3,-31 -16,-36 -4,-68l73 -12c15,-4 58,-16 69,-22l-232 -22c-233,-16 -488,11 -706,57 -139,29 -486,133 -575,199z"/>
   <path class="fil0 str0" d="M4732 441l132 114c27,22 36,38 65,67 84,81 245,247 298,341 3,-2 8,-7 10,-4l35 -9c3,0 10,2 12,3l94 7 16 165c38,-27 26,0 29,-60 1,-24 -5,-55 -1,-80 4,-20 39,-66 53,-42 -1,-2 -5,-8 -6,-6 0,0 -35,-14 -34,-95l31 -13 -18 -24c-53,-98 -329,-397 -418,-467 -86,-67 -230,-196 -322,-235l-43 22c-86,8 -40,-3 -52,19 -11,22 -6,114 -6,143 12,36 37,5 91,60 -40,7 1,0 23,18 30,24 18,31 11,76z"/>
   <path class="fil0 str0" d="M2511 4647c18,142 -7,196 6,223 36,-2 134,-19 158,6 18,19 20,63 -39,58l-53 10c182,36 306,87 490,18 129,-49 252,-166 291,-304 -52,15 -159,19 -192,6 -38,-14 -22,-19 -29,-6l-10 -50c-20,0 3,-1 10,-12 18,-26 7,-30 20,-59 -10,-8 -12,-15 -34,-24 -32,110 -92,215 -238,217 -123,1 -264,-62 -380,-83z"/>
   <path class="fil0 str0" d="M2641 16c233,-36 387,-80 643,-78 229,3 421,36 628,91 36,-21 36,-13 79,-15 -45,-42 -59,-21 -175,-32l0 -167 128 7 -104 -70c6,17 6,-19 3,16 -2,29 -2,6 -3,7 -23,16 -154,10 -185,10 0,-105 -28,-24 3,-84l-30 -4c-11,6 -54,18 -69,22l-73 12c-12,32 1,37 4,68l161 0c-24,30 -35,22 -76,22 -156,-2 -14,27 -190,25l-293 0c-173,2 8,-26 -214,-24 -48,0 -20,15 -41,-23l161 0c4,-41 8,-21 10,-67 42,-1 45,-11 95,-11 -10,14 4,9 -23,9l-42 -8c-27,-4 -133,-15 -166,-5 -36,11 -36,32 -39,68 -89,0 -67,7 -140,-9 -32,-7 -34,-5 -61,26l37 -10c-105,5 -56,30 -105,3 24,35 -23,0 18,14l97 20 -4 148c-35,9 -31,5 -34,39z"/>
   <path class="fil0 str0" d="M691 1609l-35 119c23,13 20,-19 19,23l6 0c28,7 -19,-31 7,2 7,8 7,22 8,38 2,35 0,75 0,111 -32,15 -48,-11 -59,32l12 19c0,79 -43,131 10,145 13,4 39,-8 65,-10l0 -162c8,29 5,54 6,87 0,19 -1,32 4,50 13,51 4,3 17,39 13,38 5,565 5,632 52,4 36,19 70,2 6,-3 12,-12 13,-14 1,0 3,-2 3,-2l19 -12c-9,-15 -25,31 -5,-13 0,-2 1,-6 2,-8 2,-2 6,-6 7,-8 2,-3 7,-6 10,-10 -57,-228 1,-922 110,-1100 -22,-44 -34,-31 -36,-38 -1,-2 -5,-1 -7,-2 6,-27 14,-52 0,-78l-17 -17c-21,-25 -27,-92 -27,-134l-13 0c-15,35 -55,54 -74,97l-4 -4c-4,-20 -14,8 4,-6 -16,74 8,57 89,57 0,177 21,153 -102,153 -117,0 -83,-14 -107,12z"/>
   <path class="fil0 str0" d="M5623 1860l41 225 11 -32c3,81 1,-5 19,39 10,24 4,27 3,63 2,0 5,-1 5,1 5,32 7,2 7,2 0,0 4,-1 -1,-3l0 80c41,34 8,91 22,161l8 61c-47,22 -20,-33 -34,54l-2 225c54,-4 121,-14 149,-4 35,12 28,-11 28,119 -10,-7 -18,15 -7,-15 15,-42 -12,-4 27,-35l0 20c55,-178 58,-708 10,-889l-158 -5 -4 151 -24 0 0 -312 -72 -12 -7 75c-10,32 10,10 -21,31z"/>
   <path class="fil0 str0" d="M5227 963c34,49 59,85 92,136 13,20 29,49 41,70l31 52c11,15 6,8 16,19 23,-31 0,32 9,-24 4,-25 -15,-62 22,-98 0,0 136,-47 180,50l4 11c17,31 50,57 22,104l-81 0c0,142 -30,157 72,153l90 1c67,5 -7,16 23,1 18,26 17,22 15,72l-7 89c-3,-1 -70,2 -91,2 -81,0 -57,-14 -109,-2l67 261c31,-21 11,1 21,-31l7 -75 72 12 0 312 24 0 4 -151 158 5c-17,-172 -88,-399 -146,-549 -33,-84 -69,-163 -107,-237 -23,-45 -112,-191 -117,-221 -2,-2 -5,-4 -6,-6l-12 -11c-1,-2 -3,-4 -4,-6 -10,-12 -9,-13 -17,-25 -14,-22 -16,-26 -34,-48l-31 13c-1,81 34,95 34,95 1,-2 5,4 6,6 -14,-24 -49,22 -53,42 -4,25 2,56 1,80 -3,60 9,33 -29,60l-16 -165 -94 -7c-2,-1 -9,-3 -12,-3l-35 9c-2,-3 -7,2 -10,4z"/>
   <path class="fil0 str0" d="M1333 482c-30,56 -78,90 -121,145 -38,48 -89,103 -122,158 19,8 5,4 26,8 22,3 41,-1 66,-23l38 -36c0,44 -4,31 12,61 103,0 144,-19 146,53 48,-69 123,-144 178,-200 55,-57 130,-125 198,-180l-31 0 -6 -64c-1,-2 -1,-5 -1,-7l-7 -195c0,-2 0,-5 0,-7 -2,-29 9,-24 -5,-23 -37,24 -61,42 -98,72 -31,26 -70,55 -94,78 -33,33 -156,146 -179,160z"/>
   <path class="fil0 str0" d="M927 1021c-4,43 -42,91 -64,136 -24,48 -43,90 -63,138 -38,88 -90,217 -109,314 24,-26 -10,-12 107,-12 123,0 102,24 102,-153 -81,0 -105,17 -89,-57 -18,14 -8,-14 -4,6l4 4c19,-43 59,-62 74,-97l13 0c0,42 6,109 27,134l17 17c14,26 6,51 0,78 2,1 6,0 7,2 2,7 14,-6 36,38 27,-110 93,-248 146,-346 31,-57 55,-100 89,-154 32,-49 76,-97 95,-153 -3,1 -20,9 -23,11 -2,1 -6,4 -8,5l-14 11c-23,-27 -11,11 -60,13 -24,1 -57,-1 -78,-1 -22,0 -54,1 -85,-8 -38,-10 -21,-2 -45,-44 -15,40 -39,90 -75,118z"/>
   <path class="fil0 str0" d="M657 2982c30,-2 33,3 38,-110 2,-45 1,-93 1,-138l-47 0c0,-21 1,-21 4,-34 5,-24 15,-103 -4,-123l20 -8c41,-11 47,-14 75,-5 22,51 -8,372 0,475 4,2 119,21 150,-10 2,-2 8,-10 11,-13l27 -23c0,39 3,26 -10,60l26 3c3,-51 -64,-290 -73,-387 -3,4 -8,7 -10,10 -1,2 -5,6 -7,8 -1,2 -2,6 -2,8 -20,44 -4,-2 5,13l-19 12c0,0 -2,2 -3,2 -1,2 -7,11 -13,14 -34,17 -18,2 -70,-2 0,-67 8,-594 -5,-632 -13,-36 -4,12 -17,-39 -5,-18 -4,-31 -4,-50 -1,-33 2,-58 -6,-87l0 162c-26,2 -52,14 -65,10 -53,-14 -10,-66 -10,-145l-12 -19c11,-43 27,-17 59,-32 0,-36 2,-76 0,-111 -1,-16 -1,-30 -8,-38 -26,-33 21,5 -7,-2l-6 0c1,-42 4,-10 -19,-23 -43,203 -71,401 -72,618 0,244 38,412 73,636z"/>
   <path class="fil0 str0" d="M1726 4546c110,87 438,272 599,312 8,-19 -2,1 35,-18 -5,-43 -7,-88 -5,-132 3,-70 14,-61 71,-60l-2 -26c-19,-20 -226,-106 -269,-127 -70,-35 -190,-103 -243,-146 -25,8 -8,-8 -33,13l2 41c1,0 4,0 5,0l10 1c2,1 5,1 6,2 32,10 52,41 63,72 2,4 68,36 -86,36 -19,27 -3,31 -35,60 -10,-43 7,3 -13,-27 -31,-46 -43,-30 -81,-35 0,1 -1,4 -1,4l-23 30z"/>
   <path class="fil0 str0" d="M3822 882c-19,-29 -17,-28 -53,-43 -29,50 -62,3 -114,32 -2,1 -4,3 -5,4l-24 14c-2,0 -5,1 -7,1 -2,1 -8,1 -12,3 -17,70 -19,620 -5,696 56,20 26,5 104,5l93 -5 0 -657c9,-54 -9,-19 23,-50z"/>
   <path class="fil0 str0" d="M3912 29c111,43 221,67 330,123l45 -18c0,-3 -3,-8 -4,-7l-9 -17c0,-16 17,21 20,-65 1,-23 0,-32 3,-56 36,-20 58,-16 88,-5 -30,-50 -5,-41 -64,-37 8,-32 4,-32 13,-57 -103,-30 -205,-78 -319,-111 -110,-33 -238,-64 -357,-78 -31,60 -3,-21 -3,84 31,0 162,6 185,-10 1,-1 1,22 3,-7 3,-35 3,1 -3,-16l104 70 -128 -7 0 167c116,11 130,-10 175,32 -43,2 -43,-6 -79,15z"/>
   <path class="fil0 str0" d="M657 2982c37,98 144,502 203,546l33 10c26,-38 16,-99 16,-165 28,10 24,0 74,0 -14,-37 -2,-46 -2,-49 12,-66 2,-97 20,-114 2,-37 -28,-127 -53,-154l-26 -3c13,-34 10,-21 10,-60l-27 23c-3,3 -9,11 -11,13 -31,31 -146,12 -150,10 -8,-103 22,-424 0,-475 -28,-9 -34,-6 -75,5l-20 8c19,20 9,99 4,123 -3,13 -4,13 -4,34l47 0c0,45 1,93 -1,138 -5,113 -8,108 -38,110z"/>
   <path class="fil0 str0" d="M3075 2348l134 -321 232 1c-21,100 -126,262 -138,356l280 0 -61 86c14,-1 2,-3 15,13 -26,17 3,-11 -16,37 -13,35 9,13 -4,8 73,0 11,8 48,-29l26 -102c50,5 53,-34 56,-79 2,-21 1,-45 1,-66 -114,-26 -157,47 -169,-77 -9,-94 28,-158 5,-199 -15,-25 -29,-18 -67,-18l-247 1c-2,36 -4,23 -5,57 -1,15 0,21 0,27 -1,55 -23,45 -81,43 -29,-1 -47,4 -76,-5 0,94 -15,213 40,252 11,8 21,11 27,15z"/>
   <path class="fil0 str0" d="M1542 4399c1,2 3,2 3,5 3,15 157,131 181,142l23 -30c0,0 1,-3 1,-4 38,5 50,-11 81,35 20,30 3,-16 13,27 32,-29 16,-33 35,-60 154,0 88,-32 86,-36 -11,-31 -31,-62 -63,-72 -1,-1 -4,-1 -6,-2l-10 -1c-1,0 -4,0 -5,0l-2 -41c25,-21 8,-5 33,-13 -27,-14 -68,-46 -92,-64 -19,-14 -25,-18 -46,-35 -23,-17 -29,-14 -34,-36l-76 -55 -35 27c-70,-30 -150,-3 -224,-3 12,32 0,10 41,52l66 66c1,1 4,3 5,4 27,28 34,52 25,94z"/>
   <path class="fil0 str0" d="M983 3770c20,11 79,111 100,141 25,35 78,112 107,138 1,-2 -20,-52 59,-11 79,40 37,54 36,55 27,-41 14,-37 -10,-58 41,54 -11,17 65,94l47 36c0,-42 5,-52 9,-93 7,-71 19,-54 19,-54 1,-2 4,-4 5,-5l-28 -38c15,-43 -19,-33 26,-70 -30,-36 -55,-65 -84,-103 -14,-20 -27,-37 -42,-60 -12,-19 -19,-35 -36,-43 -28,-30 4,-1 -43,-19 -30,-12 -31,-17 -59,-11l0 23c-30,6 -73,15 -97,7 -16,58 -10,53 0,111l-22 -70c37,57 -5,20 -10,21 -47,9 -17,-11 -18,-13l-24 22z"/>
   <path class="fil0 str0" d="M3996 2829c82,-48 119,-262 120,-382 1,-161 -3,-323 0,-484l-138 -44 0 751c0,79 11,118 18,159z"/>
   <path class="fil0 str0" d="M860 3528c25,85 90,163 123,242l24 -22c1,2 -29,22 18,13 5,-1 47,36 10,-21l22 70c-10,-58 -16,-53 0,-111 24,8 67,-1 97,-7l0 -23c28,-6 29,-1 59,11 47,18 15,-11 43,19 -16,-41 -155,-256 -221,-425l-34 -64c-18,17 -8,48 -20,114 0,3 -12,12 2,49 -50,0 -46,10 -74,0 0,66 10,127 -16,165l-33 -10z"/>
   <path class="fil0 str0" d="M5407 1240c0,4 130,319 149,359 52,-12 28,2 109,2 21,0 88,-3 91,-2l7 -89c2,-50 3,-46 -15,-72 -30,15 44,4 -23,-1l-90 -1c-102,4 -72,-11 -72,-153l81 0c28,-47 -5,-73 -22,-104l-4 -11c-44,-97 -180,-50 -180,-50 -37,36 -18,73 -22,98 -9,56 14,-7 -9,24z"/>
   <path class="fil0 str0" d="M1190 4049l167 184c38,32 129,146 185,166 9,-42 2,-66 -25,-94 -1,-1 -4,-3 -5,-4l-66 -66c-41,-42 -29,-20 -41,-52 74,0 154,-27 224,3l35 -27c-49,-66 -134,-103 -174,-184 -42,-20 -43,-34 -72,-70 -45,37 -11,27 -26,70l28 38c-1,1 -4,3 -5,5 0,0 -12,-17 -19,54 -4,41 -9,51 -9,93l-47 -36c-76,-77 -24,-40 -65,-94 24,21 37,17 10,58 1,-1 43,-15 -36,-55 -79,-41 -58,9 -59,11z"/>
   <path class="fil0 str0" d="M4385 216l253 161c41,27 56,48 94,64 7,-45 19,-52 -11,-76 -22,-18 -63,-11 -23,-18 -54,-55 -79,-24 -91,-60 0,-29 -5,-121 6,-143 12,-22 -34,-11 52,-19l43 -22c-6,-18 -72,-53 -87,-62 -31,-18 -82,-51 -113,-54 -50,46 -2,-12 -3,15 -3,38 39,14 -9,22l40 0c-60,84 -19,95 -40,121 -34,43 40,-24 -21,10l-26 17c-33,17 -31,14 -74,14 11,-5 -2,-5 21,-4 3,0 26,5 29,6l-40 28z"/>
   <path class="fil0 str0" d="M4566 4380c4,5 16,13 11,36 0,0 13,-33 35,20l-46 43c-1,2 -4,5 -5,7l17 20c18,3 32,-5 41,40 0,1 1,22 2,28l69 -59c16,-10 30,14 58,29 46,-16 -35,38 13,-9 29,-29 16,-107 28,-143l192 14 6 -67c-48,0 -175,13 -202,-1 -35,-17 -21,-23 -21,-23l-16 -50 61 -24c-5,-4 -11,-17 -26,-18 -29,19 -74,58 -106,81 -25,19 -83,63 -111,76z"/>
   <path class="fil0 str0" d="M2325 4858l258 86 53 -10c59,5 57,-39 39,-58 -24,-25 -122,-8 -158,-6 -13,-27 12,-81 -6,-223 -16,-11 -56,-25 -87,-25l2 26c-57,-1 -68,-10 -71,60 -2,44 0,89 5,132 -37,19 -27,-1 -35,18z"/>
   <path class="fil0 str0" d="M4242 152l143 64 40 -28c-3,-1 -26,-6 -29,-6 -23,-1 -10,-1 -21,4 43,0 41,3 74,-14l26 -17c61,-34 -13,33 21,-10 21,-26 -20,-37 40,-121l-40 0c48,-8 6,16 9,-22 1,-27 -47,31 3,-15 -23,-26 -48,-34 -85,-52 -30,-14 -68,-24 -89,-45 -9,25 -5,25 -13,57 59,-4 34,-13 64,37 -30,-11 -52,-15 -88,5 -3,24 -2,33 -3,56 -3,86 -20,49 -20,65l9 17c1,-1 4,4 4,7l-45 18z"/>
   <path class="fil0 str0" d="M1090 785l-88 118c24,42 7,34 45,44 31,9 63,8 85,8 21,0 54,2 78,1 49,-2 37,-40 60,-13l14 -11c2,-1 6,-4 8,-5 3,-2 20,-10 23,-11 26,-10 41,-42 63,-68 -2,-72 -43,-53 -146,-53 -16,-30 -12,-17 -12,-61l-38 36c-25,22 -44,26 -66,23 -21,-4 -7,0 -26,-8z"/>
   <path class="fil0 str0" d="M1704 172c14,-1 3,-6 5,23 0,2 0,5 0,7l7 195c0,2 0,5 1,7l6 64 31 0c26,-15 18,-1 30,-32 20,-47 8,0 6,-58 28,-24 39,-42 71,-41 24,-65 24,-132 7,-202 -1,-2 -5,-21 -7,-47 -77,29 -13,7 -40,-2 -12,23 -87,63 -117,86z"/>
   <path class="fil0 str0" d="M2012 -15c-26,22 -26,35 -10,59 -44,6 -54,61 -107,85l0 13c56,0 73,10 136,10l3 61 39 -28c63,-56 23,-44 118,-43 0,-228 -13,-162 -74,-168 47,-39 -13,59 -2,-43l-103 54z"/>
   <path class="fil0 str0" d="M3568 882c-33,51 -12,284 -12,364 0,128 -3,259 1,386l-585 0 0 -578c0,-44 17,-154 -18,-176 41,125 -11,584 13,757 50,18 550,18 595,-4l6 -749z"/>
  </g>
 </g>
</svg>
