<?xml version="1.0" encoding="UTF-8"?>
<!DOCTYPE svg PUBLIC "-//W3C//DTD SVG 1.1//EN" "http://www.w3.org/Graphics/SVG/1.1/DTD/svg11.dtd">
<!-- Creator: CorelDRAW X7 -->
<svg xmlns="http://www.w3.org/2000/svg" xml:space="preserve" width="53.58mm" height="53.44mm" version="1.1" style="shape-rendering:geometricPrecision; text-rendering:geometricPrecision; image-rendering:optimizeQuality; fill-rule:evenodd; clip-rule:evenodd"
viewBox="0 0 5358 5344"
 xmlns:xlink="http://www.w3.org/1999/xlink">
 <defs>
  <style type="text/css">
   <![CDATA[
    .str0 {stroke:black;stroke-width:7.62}
    .fil0 {fill:black}
   ]]>
  </style>
 </defs>
 <g id="Layer_x0020_1">
  <metadata id="CorelCorpID_0Corel-Layer"/>
  <g id="_2295617507008">
   <path class="fil0 str0" d="M2938 2799c-10,5 0,-3 -14,11l-37 42c-18,20 -25,35 -44,57l-290 332 128 -417 -246 -2 56 -145c-7,-4 -17,-7 -27,-15 -55,-39 -40,-158 -40,-252 29,9 46,4 75,5 59,2 80,12 81,-42 0,-7 0,-13 0,-28 2,-34 3,-21 5,-56l247 -1c38,-1 53,-8 67,17 23,41 -14,105 -5,199 12,124 55,51 169,77 0,22 1,45 0,66 -3,46 -7,84 -57,79l-26 103c-36,37 26,28 -48,28 14,6 -9,28 5,-8 18,-48 -10,-19 15,-37 -13,-16 -1,-14 -14,-13zm-394 2043c22,9 24,16 35,24 -13,30 -2,33 -20,59 -8,11 -30,12 -11,12l11 51c7,-14 -9,-9 28,5 34,13 140,9 192,-5 77,-118 9,-669 38,-853 70,-3 149,5 210,-13 16,-31 26,-74 16,-123 -11,-58 -33,-36 -77,-61 1,-66 -4,-24 45,-52 29,-15 34,-35 35,-80 1,-36 -1,-67 -29,-85 -50,-32 -51,13 -50,-56 56,-29 80,-1 79,-101 0,-91 -19,-67 -79,-101 -1,-78 44,-28 216,-112 59,-29 106,-54 153,-100l31 -28c17,-11 3,-4 16,-9 11,-19 25,-30 29,-55 -8,-42 -19,-81 -19,-160l0 -751 138 44c19,-66 51,-19 53,-141 1,-53 5,-118 -23,-155 -46,-58 -233,-27 -322,-34l-1 -750c-32,30 -14,-5 -24,50l1 656 -94 6c-77,-1 -47,14 -103,-6 -15,-76 -13,-626 5,-696 3,-1 10,-2 12,-2 1,-1 5,-2 6,-2l24 -13c2,-1 4,-4 5,-4 52,-30 85,17 115,-33 -80,0 -174,-22 -202,43l-6 750c-44,21 -545,22 -594,3 -25,-173 28,-632 -13,-757 -18,-52 -48,-39 -114,-39 -66,0 -77,-3 -125,19 -47,173 18,574 -14,775 -68,5 -241,-11 -290,12 -60,27 -69,189 -42,252 28,63 45,4 44,106 -1,201 -24,541 47,714 35,86 66,125 122,180 120,118 206,141 396,199l-2 38c-49,28 -78,-3 -79,101 0,103 25,73 79,101 2,70 0,24 -50,56 -25,16 -28,42 -29,75 -3,141 73,58 81,131 -19,43 -50,0 -73,56 -12,28 -11,96 1,119 29,56 160,29 224,34l-2 706z"/>
   <path class="fil0 str0" d="M5080 2414c-6,251 32,323 -16,625l-44 185c5,40 -24,152 -47,189 -35,151 -139,352 -210,477 -64,111 -213,335 -291,390 -5,17 4,7 -16,31 -18,23 -13,18 -31,20 -45,68 -159,170 -226,221 15,1 21,14 25,18l-60 24 15 50c0,0 -13,6 21,24 28,14 154,0 203,0l-7 67 -192 -13c-11,35 1,113 -28,142 -47,47 33,-7 -12,9 -29,-15 -42,-39 -59,-29l-69 59c-1,-6 -2,-26 -2,-28 -9,-44 -22,-37 -40,-40l-18 -19c2,-2 4,-6 6,-8l46 -43c-22,-53 -36,-20 -36,-20 5,-23 -7,-30 -10,-36l-20 7c-23,51 -427,218 -465,231 -176,60 -377,113 -579,128l0 269c628,-45 1254,-346 1677,-794 285,-302 490,-616 624,-1021 12,-37 51,-187 63,-207l32 -172 1 -20c-40,32 -13,-6 -28,35 -11,30 -3,8 8,15 0,-130 6,-106 -29,-119 -27,-10 -94,1 -149,4l3 -224c13,-88 -13,-33 33,-54l-7 -62c-14,-70 19,-126 -23,-161l0 -80c5,2 1,3 1,3 0,0 -2,30 -6,-2 0,-1 -4,-1 -5,-1 0,-36 7,-39 -3,-63 -19,-44 -17,42 -20,-39l-10 32z"/>
   <path class="fil0 str0" d="M1531 260c-11,103 49,5 1,43 62,6 74,-59 74,168 -94,-1 -55,-13 -117,44l-39 27 -4 -61c-63,0 -80,-10 -136,-10l0 -13c54,-23 63,-78 108,-84 -16,-25 -17,-37 10,-60l-192 101c28,9 -36,31 40,2 3,26 7,45 7,47 18,70 17,137 -7,202 -31,-1 -42,18 -70,41 2,58 14,11 -7,59 32,-10 150,-98 192,-126 66,-43 134,-80 207,-116 78,-38 141,-68 224,-100 53,-20 202,-60 235,-79 2,-33 -2,-29 33,-39l4 -148 -97 -20c-40,-14 7,21 -17,-13 48,26 -1,1 104,-4l-37 10c27,-31 30,-32 61,-26 73,16 51,10 141,10 2,-36 2,-58 39,-69 32,-10 138,1 166,5l42 8c26,0 12,5 22,-8 -49,0 -52,9 -94,10 -3,46 -6,26 -10,67l-162 0c22,38 -6,23 42,23 222,-2 41,26 214,24l293 0c176,2 34,-27 189,-25 41,0 52,8 77,-22l-162 0c-3,-31 -15,-36 -3,-67l73 -13c15,-3 58,-16 68,-22l-232 -22c-232,-16 -487,11 -706,57 -138,29 -485,134 -574,199z"/>
   <path class="fil0 str0" d="M4148 770l131 114c28,22 36,39 66,67 84,81 244,247 298,342 2,-2 7,-8 9,-5l35 -9c3,0 10,2 13,3l93 7 17 165c37,-27 26,1 28,-60 2,-24 -4,-54 0,-80 3,-20 38,-66 53,-42 -2,-2 -5,-7 -6,-6 0,0 -36,-14 -35,-95l31 -12 -17 -25c-54,-98 -329,-397 -418,-467 -87,-67 -231,-196 -323,-235l-42 22c-86,8 -40,-3 -52,20 -12,21 -6,113 -6,142 12,36 37,6 90,61 -39,6 2,-1 24,17 30,25 18,31 11,76z"/>
   <path class="fil0 str0" d="M1926 4976c19,142 -7,196 7,224 35,-3 133,-20 158,6 17,18 19,62 -40,57l-52 11c181,35 306,87 490,17 129,-49 252,-166 290,-303 -52,14 -158,18 -192,5 -37,-14 -21,-19 -28,-5l-11 -51c-19,0 3,-1 11,-12 18,-26 7,-29 20,-59 -11,-8 -13,-15 -35,-24 -31,110 -92,215 -238,217 -123,1 -264,-62 -380,-83z"/>
   <path class="fil0 str0" d="M2057 345c233,-36 386,-80 643,-78 228,3 420,37 628,91 36,-21 35,-13 79,-15 -45,-42 -60,-21 -175,-32l0 -166 127 7 -104 -71c7,17 7,-19 4,16 -3,30 -2,6 -4,7 -23,16 -154,11 -185,11 1,-106 -28,-25 4,-84l-31 -5c-10,6 -53,19 -68,22l-73 13c-12,31 0,36 3,67l162 0c-25,30 -36,22 -77,22 -155,-2 -13,27 -189,25l-293 0c-173,2 8,-26 -214,-24 -48,0 -20,15 -42,-23l162 0c4,-41 7,-21 10,-67 42,-1 45,-10 94,-10 -10,13 4,8 -22,8l-42 -8c-28,-4 -134,-15 -166,-5 -37,11 -37,33 -39,69 -90,0 -68,6 -141,-10 -31,-6 -34,-5 -61,26l37 -10c-105,5 -56,30 -104,4 24,34 -23,-1 17,13l97 20 -4 148c-35,10 -31,6 -33,39z"/>
   <path class="fil0 str0" d="M107 1939l-35 119c23,12 20,-20 18,22l6 0c28,7 -19,-31 8,3 6,7 7,21 7,37 2,35 0,76 0,111 -31,15 -48,-11 -58,32l12 19c0,80 -43,131 9,145 13,4 39,-8 66,-10l0 -161c8,28 5,53 5,86 0,19 0,32 4,51 13,50 4,2 17,38 14,38 6,565 6,632 51,4 35,19 70,2 6,-3 12,-12 13,-13 0,-1 2,-2 3,-3l19 -12c-10,-15 -25,31 -6,-13 1,-2 2,-6 3,-8 1,-2 5,-6 7,-8 1,-3 6,-6 9,-9 -56,-229 2,-923 110,-1101 -22,-44 -34,-31 -36,-37 -1,-3 -4,-2 -6,-3 6,-26 14,-52 -1,-78l-17 -17c-20,-25 -26,-92 -26,-134l-14 0c-15,35 -55,54 -74,98l-4 -4c-3,-21 -14,7 4,-7 -15,75 8,58 90,58 0,176 20,153 -102,153 -118,0 -83,-14 -107,12z"/>
   <path class="fil0 str0" d="M5038 2189l42 225 10 -32c3,81 1,-5 20,39 10,24 3,27 3,63 1,0 5,0 5,1 4,32 6,2 6,2 0,0 4,-1 -1,-3l0 80c42,35 9,91 23,161l7 62c-46,21 -20,-34 -33,54l-3 224c55,-3 122,-14 149,-4 35,13 29,-11 29,119 -11,-7 -19,15 -8,-15 15,-41 -12,-3 28,-35l-1 20c55,-178 58,-708 11,-888l-158 -6 -4 151 -24 0 0 -312 -72 -11 -7 74c-10,32 9,10 -22,31z"/>
   <path class="fil0 str0" d="M4643 1293c34,48 58,84 91,135 13,20 30,49 42,70l30 52c11,15 6,9 16,19 24,-31 0,32 10,-24 4,-25 -16,-62 22,-98 0,0 135,-47 179,50l5 11c17,32 50,57 21,104l-81 0c0,142 -29,157 72,153l91 1c66,5 -7,17 22,1 19,26 17,23 16,72l-7 89c-4,0 -70,2 -92,2 -81,0 -56,-14 -108,-2l66 261c31,-21 12,1 22,-31l7 -74 72 11 0 312 24 0 4 -151 158 6c-17,-173 -88,-399 -147,-550 -32,-84 -68,-162 -107,-237 -23,-44 -112,-191 -116,-221 -2,-1 -5,-4 -7,-5l-11 -12c-2,-2 -3,-4 -5,-6 -9,-12 -9,-13 -16,-25 -15,-22 -17,-26 -35,-47l-31 12c-1,81 35,95 35,95 1,-1 4,4 6,6 -15,-24 -50,22 -53,42 -4,26 2,56 0,80 -2,61 9,33 -28,60l-17 -165 -93 -7c-3,-1 -10,-3 -13,-3l-35 9c-2,-3 -7,3 -9,5z"/>
   <path class="fil0 str0" d="M748 811c-30,56 -78,90 -121,145 -37,48 -88,103 -122,158 20,9 5,4 27,8 22,3 40,0 66,-23l37 -35c0,43 -3,31 12,60 103,0 145,-19 146,53 48,-69 124,-144 178,-200 55,-56 131,-125 199,-179l-32 0 -6 -64c0,-2 0,-5 -1,-8l-7 -194c0,-2 0,-6 0,-7 -2,-29 9,-25 -4,-24 -38,24 -62,43 -98,72 -32,26 -71,55 -94,78 -34,33 -157,147 -180,160z"/>
   <path class="fil0 str0" d="M342 1350c-4,43 -42,91 -64,136 -23,48 -42,91 -63,139 -38,87 -89,216 -108,314 24,-26 -11,-12 107,-12 122,0 102,23 102,-153 -82,0 -105,17 -90,-58 -18,14 -7,-14 -4,7l4 4c19,-44 59,-63 74,-98l14 0c0,42 6,109 26,134l17 17c15,26 7,52 1,78 2,1 5,0 6,3 2,6 14,-7 36,37 28,-110 93,-247 147,-346 30,-57 55,-100 89,-154 32,-49 75,-97 95,-152 -3,1 -20,8 -24,10 -2,1 -5,4 -7,5l-14 11c-24,-27 -12,12 -60,14 -25,1 -57,-2 -79,-2 -22,0 -53,1 -85,-8 -37,-10 -21,-2 -44,-44 -16,40 -40,91 -76,118z"/>
   <path class="fil0 str0" d="M72 3312c30,-3 34,2 39,-111 2,-45 0,-93 0,-138l-46 0c0,-21 0,-21 3,-34 6,-24 16,-103 -3,-123l20 -7c40,-12 46,-15 75,-5 22,50 -9,371 0,474 3,2 118,21 149,-10 2,-2 9,-10 12,-13l26 -23c0,40 3,26 -10,60l27 4c2,-52 -64,-291 -74,-387 -3,3 -8,6 -9,9 -2,2 -6,6 -7,8 -1,2 -2,6 -3,8 -19,44 -4,-2 6,13l-19 12c-1,1 -3,2 -3,3 -1,1 -7,10 -13,13 -35,17 -19,2 -70,-2 0,-67 8,-594 -6,-632 -13,-36 -4,12 -17,-38 -4,-19 -4,-32 -4,-51 0,-33 3,-58 -5,-86l0 161c-27,2 -53,14 -66,10 -52,-14 -9,-65 -9,-145l-12 -19c10,-43 27,-17 58,-32 0,-35 2,-76 0,-111 0,-16 -1,-30 -7,-37 -27,-34 20,4 -8,-3l-6 0c2,-42 5,-10 -18,-22 -44,202 -72,400 -72,618 0,243 37,411 72,636z"/>
   <path class="fil0 str0" d="M1142 4875c110,87 437,272 599,312 7,-19 -2,1 34,-18 -4,-43 -6,-88 -5,-132 3,-70 14,-61 72,-60l-3 -26c-19,-20 -226,-106 -268,-127 -71,-35 -191,-103 -244,-146 -24,8 -8,-8 -33,13l2 41c2,1 5,0 5,0l11 2c1,0 4,1 6,1 31,11 51,41 63,72 1,5 67,36 -86,36 -19,28 -3,31 -35,60 -11,-43 6,3 -14,-27 -31,-46 -42,-30 -81,-35 0,2 0,4 -1,4l-22 30z"/>
   <path class="fil0 str0" d="M3238 1212c-19,-30 -17,-29 -53,-44 -30,50 -63,3 -115,33 -1,0 -3,3 -5,4l-24 13c-1,0 -5,1 -6,2 -2,0 -9,1 -12,2 -18,70 -20,620 -5,696 56,20 26,5 103,6l94 -6 -1 -656c10,-55 -8,-20 24,-50z"/>
   <path class="fil0 str0" d="M3328 358c110,43 221,67 330,124l45 -19c-1,-2 -4,-8 -4,-6l-9 -18c-1,-16 16,21 20,-64 1,-24 -1,-33 3,-57 36,-20 57,-15 87,-5 -30,-50 -5,-41 -64,-37 8,-31 5,-32 14,-56 -103,-31 -206,-78 -320,-112 -110,-33 -238,-63 -356,-77 -32,59 -3,-22 -4,84 31,0 162,5 185,-11 2,-1 1,23 4,-7 3,-35 3,1 -4,-16l104 71 -127 -7 0 166c115,11 130,-10 175,32 -44,2 -43,-6 -79,15z"/>
   <path class="fil0 str0" d="M72 3312c38,97 144,502 204,545l32 10c26,-38 16,-98 16,-165 29,10 24,0 74,0 -13,-37 -2,-46 -1,-49 12,-66 2,-97 19,-113 2,-38 -28,-128 -52,-154l-27 -4c13,-34 10,-20 10,-60l-26 23c-3,3 -10,11 -12,13 -31,31 -146,12 -149,10 -9,-103 22,-424 0,-474 -29,-10 -35,-7 -75,5l-20 7c19,20 9,99 3,123 -3,13 -3,13 -3,34l46 0c0,45 2,93 0,138 -5,113 -9,108 -39,111z"/>
   <path class="fil0 str0" d="M2491 2677l133 -320 233 0c-22,100 -127,262 -139,356l280 1 -60 85c13,-1 1,-3 14,13 -25,18 3,-11 -15,37 -14,36 9,14 -5,8 74,0 12,9 48,-28l26 -103c50,5 54,-33 57,-79 1,-21 0,-44 0,-66 -114,-26 -157,47 -169,-77 -9,-94 28,-158 5,-199 -14,-25 -29,-18 -67,-17l-247 1c-2,35 -3,22 -5,56 0,15 0,21 0,28 -1,54 -22,44 -81,42 -29,-1 -46,4 -75,-5 0,94 -15,213 40,252 10,8 20,11 27,15z"/>
   <path class="fil0 str0" d="M957 4728c1,2 3,2 4,5 3,15 157,131 181,142l22 -30c1,0 1,-2 1,-4 39,5 50,-11 81,35 20,30 3,-16 14,27 32,-29 16,-32 35,-60 153,0 87,-31 86,-36 -12,-31 -32,-61 -63,-72 -2,0 -5,-1 -6,-1l-11 -2c0,0 -3,1 -5,0l-2 -41c25,-21 9,-5 33,-13 -27,-14 -67,-46 -92,-63 -19,-15 -25,-19 -46,-35 -22,-18 -29,-15 -34,-37l-75 -55 -36 27c-69,-29 -150,-3 -223,-3 11,33 0,11 41,53l65 65c2,1 4,3 6,5 27,27 33,51 24,93z"/>
   <path class="fil0 str0" d="M399 4099c20,11 78,112 100,141 24,35 78,113 107,138 0,-2 -20,-52 59,-11 78,41 37,54 36,55 27,-41 14,-37 -10,-58 40,54 -11,17 65,94l47 36c0,-41 5,-52 9,-93 7,-71 18,-54 18,-54 2,-1 4,-4 6,-5l-28 -38c15,-43 -20,-33 26,-69 -31,-36 -56,-66 -84,-104 -15,-20 -27,-37 -42,-59 -13,-20 -19,-36 -37,-44 -28,-30 5,-1 -43,-19 -30,-11 -31,-17 -58,-11l0 24c-31,5 -73,14 -98,7 -15,57 -10,52 0,110l-22 -70c37,57 -4,20 -10,21 -46,9 -17,-11 -18,-12l-23 21z"/>
   <path class="fil0 str0" d="M3412 3159c82,-49 118,-263 119,-382 1,-162 -2,-324 0,-485l-138 -44 0 751c0,79 11,118 19,160z"/>
   <path class="fil0 str0" d="M276 3857c25,86 90,163 123,242l23 -21c1,1 -28,21 18,12 6,-1 47,36 10,-21l22 70c-10,-58 -15,-53 0,-110 25,7 67,-2 98,-7l0 -24c27,-6 28,0 58,11 48,18 15,-11 43,19 -16,-41 -154,-255 -221,-425l-34 -63c-17,16 -7,47 -19,113 -1,3 -12,12 1,49 -50,0 -45,10 -74,0 0,67 10,127 -16,165l-32 -10z"/>
   <path class="fil0 str0" d="M4822 1569c1,4 130,319 150,359 52,-12 27,2 108,2 22,0 88,-2 92,-2l7 -89c1,-49 3,-46 -16,-72 -29,16 44,4 -22,-1l-91 -1c-101,4 -72,-11 -72,-153l81 0c29,-47 -4,-72 -21,-104l-5 -11c-44,-97 -179,-50 -179,-50 -38,36 -18,73 -22,98 -10,56 14,-7 -10,24z"/>
   <path class="fil0 str0" d="M606 4378l166 185c39,31 129,146 185,165 9,-42 3,-66 -24,-93 -2,-2 -4,-4 -6,-5l-65 -65c-41,-42 -30,-20 -41,-53 73,0 154,-26 223,3l36 -27c-50,-66 -135,-103 -175,-184 -42,-20 -42,-33 -71,-69 -46,36 -11,26 -26,69l28 38c-2,1 -4,4 -6,5 0,0 -11,-17 -18,54 -4,41 -9,52 -9,93l-47 -36c-76,-77 -25,-40 -65,-94 24,21 37,17 10,58 1,-1 42,-14 -36,-55 -79,-41 -59,9 -59,11z"/>
   <path class="fil0 str0" d="M3800 545l253 161c42,28 57,48 95,64 7,-45 19,-51 -11,-76 -22,-18 -63,-11 -24,-17 -53,-55 -78,-25 -90,-61 0,-29 -6,-121 6,-142 12,-23 -34,-12 52,-20l42 -22c-5,-17 -71,-53 -87,-62 -31,-18 -82,-50 -113,-54 -49,47 -1,-11 -3,15 -2,38 39,14 -9,23l41 0c-61,83 -19,95 -41,121 -34,42 41,-25 -21,9l-25 17c-33,17 -31,14 -75,14 12,-5 -1,-4 22,-4 2,0 25,5 29,6l-41 28z"/>
   <path class="fil0 str0" d="M3982 4709c3,6 15,13 10,36 0,0 14,-33 36,20l-46 43c-2,2 -4,6 -6,8l18 19c18,3 31,-4 40,40 0,2 1,22 2,28l69 -59c17,-10 30,14 59,29 45,-16 -35,38 12,-9 29,-29 17,-107 28,-142l192 13 7 -67c-49,0 -175,14 -203,0 -34,-18 -21,-24 -21,-24l-15 -50 60 -24c-4,-4 -10,-17 -25,-18 -30,19 -74,58 -106,82 -25,19 -84,62 -111,75z"/>
   <path class="fil0 str0" d="M1741 5187l258 87 52 -11c59,5 57,-39 40,-57 -25,-26 -123,-9 -158,-6 -14,-28 12,-82 -7,-224 -16,-11 -55,-25 -87,-25l3 26c-58,-1 -69,-10 -72,60 -1,44 1,89 5,132 -36,19 -27,-1 -34,18z"/>
   <path class="fil0 str0" d="M3658 482l142 63 41 -28c-4,-1 -27,-6 -29,-6 -23,0 -10,-1 -22,4 44,0 42,3 75,-14l25 -17c62,-34 -13,33 21,-9 22,-26 -20,-38 41,-121l-41 0c48,-9 7,15 9,-23 2,-26 -46,32 3,-15 -22,-26 -48,-34 -84,-52 -31,-14 -69,-24 -89,-44 -9,24 -6,25 -14,56 59,-4 34,-13 64,37 -30,-10 -51,-15 -87,5 -4,24 -2,33 -3,57 -4,85 -21,48 -20,64l9 18c0,-2 3,4 4,6l-45 19z"/>
   <path class="fil0 str0" d="M505 1114l-87 118c23,42 7,34 44,44 32,9 63,8 85,8 22,0 54,3 79,2 48,-2 36,-41 60,-14l14 -11c2,-1 5,-4 7,-5 4,-2 21,-9 24,-10 25,-11 41,-43 62,-69 -1,-72 -43,-53 -146,-53 -15,-29 -12,-17 -12,-60l-37 35c-26,23 -44,26 -66,23 -22,-4 -7,1 -27,-8z"/>
   <path class="fil0 str0" d="M1120 501c13,-1 2,-5 4,24 0,1 0,5 0,7l7 194c1,3 1,6 1,8l6 64 32 0c25,-16 17,-2 29,-32 21,-48 9,-1 7,-59 28,-23 39,-42 70,-41 24,-65 25,-132 7,-202 0,-2 -4,-21 -7,-47 -76,29 -12,7 -40,-2 -11,23 -86,63 -116,86z"/>
   <path class="fil0 str0" d="M1428 314c-27,23 -26,35 -10,60 -45,6 -54,61 -108,84l0 13c56,0 73,10 136,10l4 61 39 -27c62,-57 23,-45 117,-44 0,-227 -12,-162 -74,-168 48,-38 -12,60 -1,-43l-103 54z"/>
   <path class="fil0 str0" d="M2983 1211c-33,51 -11,285 -11,364 0,128 -3,259 1,386l-586 0 1 -578c0,-44 17,-154 -18,-176 41,125 -12,584 13,757 49,19 550,18 594,-3l6 -750z"/>
  </g>
 </g>
</svg>
