<?xml version="1.0" encoding="UTF-8"?>
<!DOCTYPE svg PUBLIC "-//W3C//DTD SVG 1.1//EN" "http://www.w3.org/Graphics/SVG/1.1/DTD/svg11.dtd">
<!-- Creator: CorelDRAW X7 -->
<svg xmlns="http://www.w3.org/2000/svg" xml:space="preserve" width="52.58mm" height="52.3mm" version="1.1" style="shape-rendering:geometricPrecision; text-rendering:geometricPrecision; image-rendering:optimizeQuality; fill-rule:evenodd; clip-rule:evenodd"
viewBox="0 0 5258 5230"
 xmlns:xlink="http://www.w3.org/1999/xlink">
 <defs>
  <style type="text/css">
   <![CDATA[
    .fil0 {fill:black}
   ]]>
  </style>
 </defs>
 <g id="Layer_x0020_1">
  <metadata id="CorelCorpID_0Corel-Layer"/>
  <g id="_1885417671216">
   <path class="fil0" d="M2209 953c16,11 25,61 96,86 48,17 126,10 179,10 125,0 250,0 375,0 150,1 164,-53 219,-160 24,-47 105,-219 130,-245 85,19 355,125 407,170 -19,94 -113,317 -115,383 -5,130 169,213 206,285 80,58 199,233 294,257 100,26 326,-97 431,-109 47,58 148,312 168,401 8,12 -125,74 -148,86 -142,72 -254,95 -256,243l0 494c0,166 102,179 246,253 48,25 114,65 161,82 -17,85 -128,358 -171,410 -105,-15 -320,-124 -413,-113 -70,10 -121,74 -155,109 -45,45 -86,86 -132,131 -270,270 -266,217 -176,497 16,49 55,151 60,196 -83,32 -305,158 -414,165 -19,-51 -54,-111 -81,-163 -27,-51 -55,-116 -83,-161 -31,-52 -82,-80 -165,-80 -81,-1 -162,0 -243,0 -409,0 -352,-27 -491,241 -27,52 -62,112 -82,163 -109,-7 -331,-133 -414,-165 13,-102 122,-315 115,-406 -6,-78 -66,-122 -103,-159l-263 -263c-34,-34 -83,-98 -157,-105 -91,-9 -303,98 -407,113 -44,-51 -155,-325 -171,-410 47,-18 116,-59 165,-84 140,-72 241,-86 241,-251l0 -494c-1,-77 -32,-126 -85,-157 -98,-56 -222,-111 -321,-163 14,-82 127,-355 171,-410 39,4 137,42 181,55 157,50 230,109 349,-11l354 -356c113,-113 -23,-273 -15,-349 -16,-20 -45,-114 -53,-155 52,-45 322,-151 407,-170 15,16 148,277 159,309zm249 -231c-29,-70 -74,-147 -110,-218 -39,-75 -69,-163 -133,-196 -156,-81 -850,239 -912,352 -67,123 91,369 103,504l-228 231c-67,-9 -184,-57 -255,-79 -80,-25 -173,-74 -256,-23 -109,66 -276,488 -325,655 -82,278 -33,278 179,389 56,29 161,89 215,107l0 331c-17,28 -212,115 -252,137 -90,46 -189,76 -182,204 10,164 247,733 348,809 90,68 198,13 295,-19 50,-16 99,-32 149,-48 89,-29 67,-36 122,20 34,33 62,62 96,95 132,132 111,48 17,349 -25,80 -71,169 -24,250 65,113 510,287 653,327 277,77 274,51 393,-179 38,-73 70,-139 108,-214l338 1c40,75 73,143 112,217 115,222 110,253 395,173 152,-42 325,-117 461,-190 249,-134 234,-161 162,-390 -19,-61 -69,-190 -76,-247l193 -196c55,-55 38,-42 129,-13 47,15 96,31 144,47 103,33 211,86 298,11 97,-83 337,-651 341,-809 3,-125 -96,-154 -186,-201 -42,-21 -231,-106 -249,-134l1 -331c55,-19 163,-80 219,-110 214,-111 256,-113 172,-396 -47,-159 -214,-584 -327,-648 -83,-46 -176,3 -257,28 -68,21 -184,68 -248,76l-231 -228c14,-137 174,-388 102,-510 -43,-73 -301,-197 -411,-241 -519,-204 -508,-146 -633,93 -36,69 -80,145 -109,216l-341 -2z"/>
   <path class="fil0" d="M2531 1831c463,-60 832,286 882,685 58,464 -288,835 -687,883 -465,55 -828,-284 -881,-683 -62,-466 284,-832 686,-885zm1054 200c-9,-7 -128,-176 -206,-243 -346,-299 -618,-261 -672,-291 -65,17 -191,-16 -414,54 -321,100 -601,356 -718,696 -201,584 109,1089 448,1305 694,442 1585,17 1708,-761 71,-453 -140,-711 -146,-760z"/>
   <path class="fil0" d="M2575 2558l-625 3 -1 104 626 3c0,101 -13,499 4,564l99 0 4 -563 647 -1 0 -106 -647 -1 0 -684 -103 0c-10,39 -4,593 -4,681z"/>
   <polygon class="fil0" points="0,2668 656,2668 653,2561 0,2561 "/>
   <polygon class="fil0" points="4603,2668 5258,2667 5256,2561 4602,2561 "/>
   <polygon class="fil0" points="2575,5230 2583,5230 2682,5230 2680,4598 2575,4598 "/>
   <polygon class="fil0" points="2575,631 2682,631 2682,3 2576,0 "/>
   <polygon class="fil0" points="2575,3928 2583,3928 2683,3928 2683,3820 2576,3820 "/>
   <polygon class="fil0" points="2575,1286 2680,1286 2683,1178 2577,1178 "/>
   <polygon class="fil0" points="4099,2668 4101,2563 3995,2563 3996,2669 "/>
   <polygon class="fil0" points="1283,2669 1384,2668 1385,2568 1280,2564 1280,2571 "/>
   <path class="fil0" d="M1283 2669l-3 -98 0 -7 105 4c-8,-15 5,-7 -19,-11l-90 3 -4 84c4,38 0,16 11,25z"/>
   <path class="fil0" d="M4099 2668c13,-7 5,10 9,-18l-3 -89c-18,-6 -88,-11 -110,2l106 0 -2 105z"/>
  </g>
 </g>
</svg>
