<?xml version="1.0" encoding="UTF-8"?>
<!DOCTYPE svg PUBLIC "-//W3C//DTD SVG 1.1//EN" "http://www.w3.org/Graphics/SVG/1.1/DTD/svg11.dtd">
<!-- Creator: CorelDRAW X7 -->
<svg xmlns="http://www.w3.org/2000/svg" xml:space="preserve" width="61.6898mm" height="49.69mm" version="1.1" style="shape-rendering:geometricPrecision; text-rendering:geometricPrecision; image-rendering:optimizeQuality; fill-rule:evenodd; clip-rule:evenodd"
viewBox="0 0 6169 4969"
 xmlns:xlink="http://www.w3.org/1999/xlink">
 <defs>
  <style type="text/css">
   <![CDATA[
    .str0 {stroke:#0D8DEF;stroke-width:7.62}
    .fil0 {fill:#0D8DEF}
   ]]>
  </style>
 </defs>
 <g id="Layer_x0020_1">
  <metadata id="CorelCorpID_0Corel-Layer"/>
  <g id="_2295618392656">
   <path class="fil0 str0" d="M2244 1984c35,-4 223,-19 238,-10 14,8 116,117 124,132 -41,2 -221,8 -246,-3 -5,-2 -108,-102 -116,-119zm-24 -192l-27 -4c-12,8 -15,15 -51,8 -9,-33 -5,-119 7,-145 22,1 30,16 41,28 31,32 91,77 90,108 -25,6 -35,9 -60,5zm-270 -243l-3 132c-27,-7 -44,-33 -68,-57 -23,-23 -50,-37 -55,-67l126 -8zm-227 -185c-1,-24 0,-46 1,-70 2,-49 3,-43 15,-58l35 29c11,12 17,17 27,28 17,16 49,42 52,61 -32,12 -90,9 -130,10zm-199 -234l-3 131c-20,0 -78,-68 -100,-89 -18,-17 -22,-18 -25,-34l128 -8zm-215 -321c16,1 50,42 65,56 21,21 51,45 60,69l-138 2 13 -127zm-284 -49l19 -13c30,-27 29,-40 64,-54l-7 148c-30,-4 -17,-18 -40,-23 -47,0 -41,6 -61,31l-9 9c-1,1 -2,2 -3,3l-36 37c-16,16 0,-1 -18,13 -24,21 -9,17 -32,35 -5,5 -9,5 -17,14 -9,8 -9,12 -14,17l-11 12c-1,1 -3,2 -4,3 -1,1 -6,3 -11,8 -1,0 -2,2 -3,3l-19 23c-1,1 -2,2 -3,3 -1,1 -2,2 -3,3 -30,25 -29,29 -28,67l9 137c2,-1 7,-5 8,-7l53 -51c6,-5 3,-1 10,-7l97 -87c-10,-92 -3,-60 12,-67 25,13 155,146 166,166 15,7 33,25 41,40 22,13 56,47 69,70 15,7 33,25 41,41 21,11 51,41 62,62 16,7 34,26 41,41 23,13 57,47 69,69 16,8 34,26 41,41 22,12 51,41 63,63 16,7 34,25 41,41 23,12 57,47 69,69 16,7 34,26 41,41 22,12 51,41 63,63 15,7 33,25 41,41 22,12 57,46 69,69 15,7 34,25 41,41 19,10 120,107 127,132 -122,2 -254,-31 -254,122 0,42 0,85 0,128 0,164 6,339 -1,502 -48,-8 -644,-1 -747,-1 -152,0 -131,-13 -130,55 2,88 -6,542 5,560 70,-16 362,-5 454,-5 76,0 411,-14 455,10l4 128c16,-6 14,-10 24,-22 1,-1 2,-2 3,-3l94 -94c6,-5 3,-2 11,-8l200 -203c16,-15 -18,14 10,-8 27,-22 51,-58 78,-81l136 -133c1,-1 2,-2 3,-2l109 -113c0,0 2,-2 2,-3l14 -10c1,-1 2,-2 3,-3l69 -72c1,-1 2,-2 3,-3l14 -10c1,-1 2,-2 3,-3l23 -27c1,-1 2,-2 3,-3l39 -40c1,0 3,-2 3,-2l64 -59c12,-12 1,-1 6,-7 14,-18 -3,-1 13,-17l85 -86c1,-1 3,-2 3,-3l32 -23c-10,-24 4,-8 -18,-20 -36,0 -175,100 -220,111 -17,18 -223,127 -262,147l-68 37c-18,9 -7,5 -21,6l-43 9c-18,0 -37,0 -55,0l-313 -1c10,-21 144,-86 165,-98 55,-31 121,-66 169,-93 52,-29 314,-177 345,-186 10,-11 445,-252 478,-261 10,-13 57,-35 73,-44 25,-13 56,-37 79,-38 12,-16 10,-9 18,-17 10,-9 6,1 11,-13l-340 -2c-30,-20 -65,-62 -90,-86 -31,-32 -56,-56 -86,-86l-129 -127c-22,-21 -25,-19 -39,-45 -23,-22 -66,-60 -82,-86l-54 -53c-23,-14 -748,-740 -751,-747l-26 -20c11,-7 -18,-15 20,-5 19,5 4,3 11,11 33,5 207,95 262,120l517 240c44,21 84,41 129,60 23,10 110,47 127,65 13,0 52,15 62,26l500 236c23,0 69,23 82,35 16,5 28,11 46,18 34,15 36,22 36,22 1,-1 2,2 3,4 16,-2 57,12 63,26 16,3 22,6 36,12 8,4 9,5 16,9 8,6 6,4 11,9 25,3 73,24 89,40 34,9 138,57 149,70 38,9 57,34 94,26l-4 -4c3,-32 8,-57 14,-85l10 -57c-2,-49 -124,-60 -161,-100 -22,-4 -37,-15 -62,-27 -13,-6 -22,-9 -34,-15 -20,-10 -15,-4 -26,-19 -21,0 -54,-15 -63,-27 -31,-7 -56,-24 -84,-38 -15,-7 -66,-28 -72,-38 -21,-5 -29,-10 -48,-19l-36 -21c0,-2 -2,-2 -3,-3 -20,-1 -39,-11 -46,-21l-83 -40c-24,-3 -71,-29 -78,-36 -12,-5 -26,-10 -39,-15 -1,-1 -16,-8 -16,-9 -13,-8 -7,-3 -15,-12l-40 -13c-23,-11 -90,-39 -104,-56 -17,-1 -63,-19 -68,-32 -43,-12 -252,-117 -322,-150l-35 -21c-1,-3 -2,-3 -4,-4 -24,1 -75,-31 -95,-41l-202 -94c-24,-15 -51,-26 -77,-38 -19,-9 -62,-23 -71,-41 -18,0 -54,-14 -62,-27 -58,-14 -658,-321 -697,-327 -36,6 -28,-7 -59,-9 -23,-1 -24,8 -32,17l-24 24c-25,20 -17,21 -33,35 0,1 -2,2 -3,3l-50 48c-23,18 -14,16 -26,29l-46 46c-12,12 -15,7 -29,25 -9,11 -2,4 -11,14l-40 40c-1,1 -2,2 -2,3l-106 102c-25,23 -17,33 -17,35l0 168c1,-1 3,-3 5,-4l45 -38c1,-1 2,-3 3,-4l50 -53c18,-20 6,2 40,-39l33 -29c29,-32 47,-42 51,-56 4,-17 -2,-16 -1,-25 1,-2 1,-4 1,-5l9 -16z"/>
   <path class="fil0 str0" d="M4109 2598c-8,18 0,6 -14,21 -6,6 -9,8 -16,14 -12,12 -15,17 -32,27 -37,31 -106,97 -133,127 -12,21 -55,64 -77,72l-459 0c-35,9 -21,-5 -21,-96 0,0 -4,8 -6,10l-12 12c-6,5 -3,1 -11,7 -20,17 -12,20 -32,35 -6,5 -3,2 -10,8 -10,8 -5,3 -13,13l-96 99c-1,1 -2,2 -3,3 0,1 -2,2 -3,3l-138 136c-24,19 -16,19 -30,32l-39 40c-1,1 -2,2 -3,3l-40 40c-13,14 -17,10 -33,28l-138 143c-1,0 -2,2 -3,3 -16,16 -11,2 -35,33l-32 28c-1,1 -2,2 -3,3l-19 35c133,-1 1272,-10 1295,6 31,38 -12,749 12,873 47,32 164,33 229,22 45,-7 69,-15 104,-29 35,-14 66,-37 97,-47 0,-9 63,-55 101,-103 8,-10 9,-13 16,-21 1,-3 5,-7 7,-10 6,-7 6,-6 8,-7 25,-64 41,-55 41,-143 0,-59 0,-118 0,-177 0,-114 -4,-242 0,-352 9,-11 1,-13 53,-12l391 1c145,0 305,6 448,-1 13,-38 5,-532 5,-616 -102,-5 -214,0 -318,-1 -26,0 -251,6 -268,-4 -12,-6 -15,-16 -21,-26 -8,-7 -5,-6 -7,-11 -28,-16 -99,-91 -126,-116 -19,-11 -22,-17 -35,-30 -5,-5 -11,-9 -16,-14 -13,-14 -4,-3 -11,-18 -8,-7 -20,-15 -24,-28 -28,-15 -215,-200 -245,-231 -16,-16 -18,-23 -43,-23l-26 31c-70,65 -147,148 -216,208z"/>
   <path class="fil0 str0" d="M814 4372c-6,61 7,88 29,133 19,41 48,77 60,108 15,5 20,20 31,32 6,7 9,9 15,16l12 20c57,25 149,173 448,165 253,-7 396,-196 409,-203 15,6 51,51 58,67 12,1 3,-2 14,6l33 28c12,11 6,1 11,13 31,12 62,37 93,53 181,90 394,82 565,-24 66,-41 134,-119 147,-117l76 80c8,4 15,10 21,15 8,7 8,6 14,13 8,8 2,1 9,12 11,1 2,-2 15,5 0,0 15,9 15,9 13,8 24,13 30,22 28,7 49,21 81,33 26,10 54,20 81,27 67,16 146,11 215,4l11 4c1,-1 3,-4 4,-3l98 -32c150,-55 209,-153 241,-164 16,11 26,26 37,38 21,23 27,22 39,45l83 56c152,78 241,104 421,76 64,-10 137,-44 184,-72 81,-48 118,-102 146,-119l25 20c10,11 15,18 21,29 11,6 43,28 48,46 45,16 284,233 618,76 28,-14 50,-31 79,-41 11,-15 78,-65 99,-87 21,-22 71,-96 82,-104 11,-32 52,-95 47,-137 -8,-79 -140,-143 -204,-10 -61,127 -159,213 -316,233 -131,17 -200,-37 -277,-81 -19,-10 -25,-16 -38,-28 -4,-6 -10,-12 -14,-16 -18,-21 -6,-4 -13,-22l-17 -31 -10 -11c-1,-1 -9,-15 -9,-16 -9,-18 -10,-20 -10,-35 -13,-16 -14,-30 -22,-43 -8,-11 -8,-7 -15,-15 -1,-1 -4,-5 -5,-6 -1,-1 -2,-2 -2,-3 -1,-2 -2,-3 -2,-4 -32,-9 -45,-22 -89,-13 -29,6 -48,25 -59,41 -14,19 -22,40 -34,64 -51,93 -162,185 -288,194l-114 -3c-63,-12 -110,-33 -160,-67 -30,-22 -95,-79 -100,-118 -20,-15 -30,-49 -36,-78 -4,-4 -10,-18 -26,-32 -11,-10 -26,-17 -34,-24l-81 2 -11 9c-5,4 -3,2 -10,8 -23,19 -26,42 -45,78 -51,97 -200,211 -289,195l-45 9c-26,1 -103,-2 -119,-26 -22,6 -24,0 -42,-8l-31 -20c-31,-9 -30,-18 -52,-29 -18,-10 -26,-19 -39,-32 -6,-7 -11,-12 -17,-20 -14,-17 -6,-7 -13,-22l4 -3c-14,-10 -14,-11 -24,-27 -7,-12 -10,-18 -14,-34 -12,-12 -18,-40 -28,-60 -4,-9 0,0 -5,-10l-3 -7c-16,-6 -86,-72 -153,-1l-78 125c-17,31 -47,63 -78,77 -75,59 -180,84 -275,69l-41 -12 -42 -5 0 -7c-31,-5 -79,-24 -92,-49 -41,-8 -109,-106 -129,-156 -18,-45 -19,-67 -56,-89 -36,-22 -75,-18 -107,3 -35,23 -39,48 -61,87 -50,90 -139,170 -245,190 -45,19 -127,15 -177,3 -16,-4 -35,-8 -49,-20 -20,-1 -27,-6 -48,-17 -9,-5 -17,-8 -24,-13 -21,-16 -8,-5 -12,-14l-11 -1c-18,-7 -1,4 -22,-13 -5,-4 -11,-9 -16,-14 -13,-12 -20,-18 -31,-36 -7,-19 -2,-3 -9,-16 -10,-18 -6,-5 -8,-19 -12,-9 -7,-3 -17,-17 -2,-4 -6,-12 -8,-17 -9,-19 -12,-23 -15,-43l-5 -7c-9,-17 5,14 -3,-7 -5,-11 -2,0 -3,-15 -47,-42 -32,-59 -122,-54 -15,11 -26,11 -42,26l-28 35z"/>
   <path class="fil0 str0" d="M3357 2336c-11,23 -17,18 -32,32 -1,0 -2,2 -3,3 -1,1 -3,2 -3,3l-230 234c-1,1 -2,2 -3,3l-40 40c-16,17 3,-2 -13,10l-329 332c-1,1 -2,2 -3,3l-165 165c-1,1 -2,2 -3,3l-37 36c-1,1 -2,3 -3,4l-32 28c-9,11 -1,4 -10,14l-385 385c-1,1 -2,2 -3,3l-192 187c-43,37 -17,133 -16,185 1,1 3,2 3,3l6 12 21 -21c1,-1 2,-2 3,-3l96 -93c25,-23 11,-17 26,-30l85 -85c1,-1 2,-2 3,-3l77 -77c0,-1 2,-2 2,-3l40 -40c1,-1 2,-2 3,-3 1,-1 2,-2 3,-3l50 -48c3,-2 9,-5 14,-11 5,-5 9,-11 11,-14l90 -92c1,-1 2,-2 3,-3l83 -82c1,-1 2,-3 3,-3l32 -30c22,-28 -7,7 8,-10 0,-1 2,-2 2,-3 1,-1 3,-2 3,-3l123 -122c1,-1 2,-3 3,-3 1,-1 2,-2 3,-3l39 -40c7,-7 8,-1 27,-22l13 -18c1,-1 2,-2 3,-3 1,-1 2,-2 3,-3l14 -10c10,-8 5,-3 13,-13l40 -39c1,-1 4,-6 5,-7l96 -99c1,-1 2,-2 3,-3l83 -82c0,-1 2,-2 3,-3l82 -83c17,-17 -3,2 14,-10l200 -204c1,0 2,-2 3,-2l39 -41c11,-11 14,-11 27,-14l-1 -201z"/>
   <path class="fil0 str0" d="M1869 4066c3,18 -2,0 4,14 3,9 3,8 7,16 11,19 9,9 13,29 19,12 31,37 49,56 19,21 38,39 57,53 32,25 97,72 145,74 47,-5 46,24 93,-17 21,-18 11,-15 26,-29l70 -65c0,-1 1,-3 2,-4l51 -53c30,-38 43,-3 43,-91 -2,-190 0,-381 0,-571l-10 0c-7,36 -21,28 -41,50 -14,16 -3,11 -26,29 -32,25 -17,21 -36,37l-39 40c-17,17 -12,3 -33,29l-125 125c-6,8 -3,5 -8,11 -15,18 -16,12 -29,25l-19 24c-1,1 -2,2 -3,3l-155 151c-51,60 -22,7 -36,64z"/>
   <path class="fil0 str0" d="M3298 2317c-25,3 -281,147 -314,169 -4,23 -3,21 -23,37l-428 427c-1,1 -2,2 -3,3l-37 37c0,1 -2,2 -3,3l-42 43c-1,0 -2,2 -3,2l-165 166c-1,0 -2,2 -3,3 -1,0 -2,2 -3,2l-83 83c-1,1 -2,2 -3,3l-211 211c0,1 -2,2 -3,3 0,1 -2,2 -3,2l-96 93c-19,16 -25,25 -27,53 -3,50 0,111 0,163 17,-7 18,-15 28,-26l243 -239c1,-1 4,-5 5,-7l93 -96c1,0 2,-2 3,-3l80 -79c1,-1 2,-2 3,-3l88 -89c1,0 2,-2 3,-2l40 -40c1,-1 2,-2 3,-3l24 -20c1,-1 4,-5 5,-7l110 -109c1,-1 5,-4 7,-6l19 -23c1,-1 2,-3 3,-3 1,-1 2,-2 3,-3l721 -721c18,-20 32,-5 28,-39 -36,1 -25,15 -59,15z"/>
   <path class="fil0 str0" d="M4009 1150l-8 53c-11,74 -21,143 -34,214l-48 296 724 2c-7,-25 -14,-12 -31,-44 -17,-2 -225,-204 -250,-227 -31,-29 -235,-211 -248,-236 -16,-10 -31,-22 -43,-37 -19,-8 -12,-4 -28,-19 -9,-7 -15,-12 -23,-20l-11 18z"/>
   <path class="fil0 str0" d="M964 2152l-45 39c-12,11 -1,0 -7,6l-123 114 4 -184c5,-16 14,-18 24,-26l137 -137c9,-10 0,6 9,-13l1 201zm0 -213l-27 14c-9,9 -7,15 -25,30 -11,9 -4,1 -14,10 -19,17 1,7 -39,40l-7 6c-21,21 3,6 -42,42l-16 13c-2,1 -4,2 -5,3 0,-31 0,-63 0,-94 0,-17 0,-33 0,-49l2 -36c1,-1 2,-3 2,-5l46 -52c1,-1 2,-2 3,-3l86 -86c17,-17 25,-13 35,-35l1 202zm-175 -55c0,-34 -10,-176 10,-198l27 -21c1,-1 2,-3 3,-4 0,-1 1,-2 2,-3l81 -79c15,-17 -15,18 7,-10 27,-35 30,-14 44,-46l3 202c-15,3 -18,3 -29,14l-143 141c-1,-1 -4,3 -5,4zm0 -214c0,-46 0,-92 0,-138 -1,-79 7,-48 37,-81l93 -96c27,-34 30,-14 44,-45l3 201c-26,6 -65,54 -87,78l-30 25c0,1 -1,3 -2,4l-34 33c-1,1 -2,2 -3,3 -1,1 -3,2 -4,3 -1,1 -3,2 -4,3 -2,2 -8,8 -8,7 -1,-2 -4,2 -5,3zm0 -214c0,-246 -9,-163 40,-222l106 -109c17,-14 1,3 17,-13 13,-13 2,4 11,-16l3 201c-26,6 -65,54 -87,78l-30 25c0,1 -1,3 -2,4l-34 33c-1,1 -2,2 -3,3 -1,1 -3,2 -4,3 -1,1 -3,2 -4,3 -2,2 -8,8 -8,7 -1,-1 -4,2 -5,3zm298 -1037c-8,14 0,4 -12,16 -6,7 -2,2 -10,9 -8,7 -11,11 -18,18l-265 260 -6 14c-11,123 -2,285 -2,412l-4 1207c0,2 -2,6 -2,5 0,0 -2,4 -3,5 -17,12 -181,-20 -176,114 1,19 6,42 20,55 10,10 4,6 18,14 -9,-87 -9,-24 36,-82 1,-1 7,-9 8,-10l24 -19c13,-13 27,-41 57,-49 21,-5 9,3 37,-10 0,-61 6,-44 31,-66 1,-1 2,-2 3,-3l37 -37c1,-1 2,-2 3,-3l54 -55c24,-31 24,-21 37,-36 9,-10 0,6 9,-13l1 201 -66 55c-17,14 -6,13 -29,32 -17,14 -1,-3 -17,13 -14,14 -3,7 -16,21l-6 6c-5,4 -9,7 -11,8 -34,26 -33,58 -87,58 -30,0 -43,-3 -71,5l3 10c42,3 422,6 460,-2 23,-5 39,-15 51,-27l22 -33c2,-2 5,-7 6,-8l6 -9 -5 -55c-28,-25 -21,-53 -80,-66 -47,-11 -98,3 -146,-7l0 -1350c-15,7 -22,-25 -12,67l-97 87c-7,6 -4,2 -10,7l-53 51c-1,2 -6,6 -8,7l-9 -137c-1,-38 -2,-42 28,-67 1,-1 2,-2 3,-3 1,-1 2,-2 3,-3l19 -23c1,-1 2,-3 3,-3 5,-5 10,-7 11,-8 1,-1 3,-2 4,-3l11 -12c5,-5 5,-9 14,-17 8,-9 12,-9 17,-14 23,-18 8,-14 32,-35 18,-14 2,3 18,-13l36 -37c1,-1 2,-2 3,-3l9 -9c20,-25 14,-31 61,-31 -18,-31 -31,-25 -36,-58l-9 16c0,1 0,3 -1,5 -1,9 5,8 1,25 -4,14 -22,24 -51,56l-33 29c-34,41 -22,19 -40,39l-50 53c-1,1 -2,3 -3,4l-45 38c-2,1 -4,3 -5,4l0 -168c0,-2 -8,-12 17,-35l106 -102c0,-1 1,-2 2,-3l40 -40c9,-10 2,-3 11,-14 14,-18 17,-13 29,-25l46 -46c12,-13 3,-11 26,-29l50 -48c1,-1 3,-2 3,-3 16,-14 8,-15 33,-35l24 -24c8,-9 9,-18 32,-17 31,2 23,15 59,9 -17,-17 -55,-33 -83,-42 -50,-16 -56,-2 -97,12z"/>
   <path class="fil0 str0" d="M3358 2537c-13,3 -16,3 -27,14l-39 41c-1,0 -2,2 -3,2l-200 204c-17,12 3,-7 -14,10l-82 83c-1,1 -3,2 -3,3l-83 82c-1,1 -2,2 -3,3l-96 99c-1,1 -4,6 -5,7l-40 39c-8,10 -3,5 -13,13l-14 10c-1,1 -2,2 -3,3 -1,1 -2,2 -3,3l-13 18c-19,21 -20,15 -27,22l-39 40c-1,1 -2,2 -3,3 -1,0 -2,2 -3,3l-123 122c0,1 -2,2 -3,3 0,1 -2,2 -2,3 -15,17 14,-18 -8,10l-32 30c-1,0 -2,2 -3,3l-83 82c-1,1 -2,2 -3,3l-90 92c-2,3 -6,9 -11,14 -5,6 -11,9 -14,11l-50 48c-1,1 -2,2 -3,3 -1,1 -2,2 -3,3l-40 40c0,1 -2,2 -2,3l-77 77c-1,1 -2,2 -3,3l-85 85c-15,13 -1,7 -26,30l-96 93c-1,1 -2,2 -3,3l-21 21 -6 -12c0,-1 -2,-2 -3,-3 -1,-52 -27,-148 16,-185l192 -187c1,-1 2,-2 3,-3l385 -385c9,-10 1,-3 10,-14l32 -28c1,-1 2,-3 3,-4l37 -36c1,-1 2,-2 3,-3l165 -165c1,-1 2,-2 3,-3l329 -332c16,-12 -3,7 13,-10l40 -40c1,-1 2,-2 3,-3l230 -234c0,-1 2,-2 3,-3 1,-1 2,-3 3,-3 15,-14 21,-9 32,-32l1 201zm-60 -220c34,0 23,-14 59,-15 4,34 -10,19 -28,39l-721 721c-1,1 -2,2 -3,3 -1,0 -2,2 -3,3l-19 23c-2,2 -6,5 -7,6l-110 109c-1,2 -4,6 -5,7l-24 20c-1,1 -2,2 -3,3l-40 40c-1,0 -2,2 -3,2l-88 89c-1,1 -2,2 -3,3l-80 79c-1,1 -2,3 -3,3l-93 96c-1,2 -4,6 -5,7l-243 239c-10,11 -11,19 -28,26 0,-52 -3,-113 0,-163 2,-28 8,-37 27,-53l96 -93c1,0 3,-1 3,-2 1,-1 3,-2 3,-3l211 -211c1,-1 2,-2 3,-3l83 -83c1,0 2,-2 3,-2 1,-1 2,-3 3,-3l165 -166c1,0 2,-2 3,-2l42 -43c1,-1 3,-2 3,-3l37 -37c1,-1 2,-2 3,-3l428 -427c20,-16 19,-14 23,-37l-24 7c-9,12 -25,18 -40,26l-38 25c-1,-1 -3,3 -4,4 22,12 8,-4 18,20l-32 23c0,1 -2,2 -3,3l-85 86c-16,16 1,-1 -13,17 -5,6 6,-5 -6,7l-64 59c0,0 -2,2 -3,2l-39 40c-1,1 -2,2 -3,3l-23 27c-1,1 -2,2 -3,3l-14 10c-1,1 -2,2 -3,3l-69 72c-1,1 -2,2 -3,3l-14 10c0,1 -2,3 -2,3l-109 113c-1,0 -2,1 -3,2l-136 133c-27,23 -51,59 -78,81 -28,22 6,-7 -10,8l-200 203c-8,6 -5,3 -11,8l-94 94c-1,1 -2,2 -3,3 -10,12 -8,16 -24,22l-4 -128c-44,-24 -379,-10 -455,-10 -92,0 -384,-11 -454,5 24,19 192,9 222,9 121,0 627,-8 673,3l3 523c9,6 1,-3 9,9 3,5 5,11 8,17 8,20 4,19 18,32 14,-57 -15,-4 36,-64l155 -151c1,-1 2,-2 3,-3l19 -24c13,-13 14,-7 29,-25 5,-6 2,-3 8,-11l125 -125c21,-26 16,-12 33,-29l39 -40c19,-16 4,-12 36,-37 23,-18 12,-13 26,-29 20,-22 34,-14 41,-50l10 0c0,190 -2,381 0,571 0,88 -13,53 -43,91l-51 53c-1,1 -2,3 -2,4l-70 65c-15,14 -5,11 -26,29 -47,41 -46,12 -93,17 37,42 190,15 234,29 5,-4 4,-4 13,-8 11,-4 10,-3 20,-6 16,-5 17,-1 24,-11 18,-134 -18,-781 11,-834 4,-21 10,-30 24,-42 11,-9 8,-4 17,-13l86 -85c1,-1 2,-2 3,-3l227 -231c19,-23 24,-20 29,-26l185 -188c11,-14 1,-3 16,-15l171 -171c28,-22 -7,7 10,-8l92 -91c22,-25 44,-39 50,-56l4 202 -41 31c-6,7 5,-4 -6,7 -1,1 -3,2 -4,3l-17 13c-1,1 -2,2 -3,3l-22 27c-1,1 -3,2 -4,3l-105 101c-9,11 -2,4 -10,14l-27 23c-1,1 -2,2 -3,3 -1,1 -2,2 -3,3l-43 43c0,1 -2,2 -2,3l-38 37c-14,14 -5,10 -19,23 -13,14 -9,5 -23,19 -17,17 2,-2 -11,14l-75 72c-1,1 -2,2 -3,3l-76 77c-1,1 -2,2 -3,3l-6 5c-15,17 14,-17 -8,11 -1,1 -4,6 -5,7l-21 17c-1,0 -2,1 -3,2 -1,1 -2,2 -3,3l-26 30c-11,9 -4,1 -14,10 -1,1 -2,2 -3,3l-62 66c-16,17 -32,21 -38,47l25 0 19 -35c1,-1 2,-2 3,-3l32 -28c24,-31 19,-17 35,-33 1,-1 2,-3 3,-3l138 -143c16,-18 20,-14 33,-28l40 -40c1,-1 2,-2 3,-3l39 -40c14,-13 6,-13 30,-32l138 -136c1,-1 3,-2 3,-3 1,-1 2,-2 3,-3l96 -99c8,-10 3,-5 13,-13 7,-6 4,-3 10,-8 20,-15 12,-18 32,-35 8,-6 5,-2 11,-7l12 -12c2,-2 6,-10 6,-10 0,91 -14,105 21,96l-1 -569c-8,-23 8,-8 -20,-12 -17,18 -41,17 -59,39z"/>
   <path class="fil0 str0" d="M4787 1945c-11,24 -80,87 -101,98 -29,30 -76,73 -103,99l-77 76c-12,13 -13,16 -24,17l-3 26 236 222c11,13 4,3 11,17 15,3 61,44 65,61 23,11 113,99 134,121 4,4 5,6 9,10 8,11 0,-2 9,14 12,2 -1,-10 16,10l21 11 2 -21 -17 -117 1 -13c-17,-19 -17,-64 -22,-89l-44 -277c-5,-36 -45,-288 -59,-312 -18,10 -16,12 -31,26 -3,4 -18,17 -23,21z"/>
   <path class="fil0 str0" d="M3880 1910l2 20c-3,29 -10,72 -17,100 -3,14 -5,28 -8,45l-6 31c-6,17 -2,7 -7,15 7,34 -9,82 -15,114 -3,31 -24,173 -35,188 3,20 -9,83 -13,90 -4,41 -13,137 -29,160l3 8 -9 55c32,-20 186,-174 222,-208 74,-72 150,-150 219,-210 7,-16 1,-8 14,-21 13,-14 25,-18 43,-44 -6,-18 -4,-13 -18,-26 -15,-16 -10,-8 -21,-28 -34,-27 -64,-63 -90,-87 -23,-22 -77,-69 -93,-97 -10,-2 -21,-14 -28,-20 -5,-5 -6,-5 -12,-13 -6,-9 -5,-6 -6,-13 -17,-8 -15,-6 -28,-20 -15,-14 -12,-10 -20,-27 -14,-3 3,11 -16,-9 -8,-9 -5,-5 -6,-12 -24,2 -11,-4 -26,9z"/>
   <path class="fil0 str0" d="M2446 3478l187 -1c6,-26 22,-30 38,-47l62 -66c1,-1 2,-2 3,-3 10,-9 3,-1 14,-10l26 -30c1,-1 2,-2 3,-3 1,-1 2,-2 3,-2l21 -17c1,-1 4,-6 5,-7 22,-28 -7,6 8,-11l6 -5c1,-1 2,-2 3,-3l76 -77c1,-1 2,-2 3,-3l75 -72c13,-16 -6,3 11,-14 14,-14 10,-5 23,-19 14,-13 5,-9 19,-23l38 -37c0,-1 2,-2 2,-3l43 -43c1,-1 2,-2 3,-3 1,-1 2,-2 3,-3l27 -23c8,-10 1,-3 10,-14l105 -101c1,-1 3,-2 4,-3l22 -27c1,-1 2,-2 3,-3l17 -13c1,-1 3,-2 4,-3 11,-11 0,0 6,-7l41 -31 -4 -202c-6,17 -28,31 -50,56l-92 91c-17,15 18,-14 -10,8l-171 171c-15,12 -5,1 -16,15l-185 188c-5,6 -10,3 -29,26l-227 231c-1,1 -2,2 -3,3l-86 85c-9,9 -6,4 -17,13 -14,12 -20,21 -24,42z"/>
   <path class="fil0 str0" d="M4139 207l-3 268c66,0 424,7 455,-5l0 -255c-67,-15 -128,26 -133,-32 -1,-9 0,-26 0,-37 1,-23 -2,-46 -5,-68 -7,-47 -62,-58 -119,-54 -28,17 -47,22 -64,58 -15,34 -6,82 -11,123l-120 2z"/>
   <path class="fil0 str0" d="M4318 1193l-5 -30c23,-6 -1,3 12,-6 1,0 3,-2 4,-2 0,-1 2,-2 3,-3l19 -25c21,-19 172,-10 206,-10l0 9c-36,8 -30,22 -47,39 -1,1 -3,2 -4,3 -1,1 -2,2 -3,3l-20 16c-15,16 14,-18 -8,10 -15,20 -27,25 -29,27l-6 6c-26,31 -2,28 -54,26 8,15 1,3 9,13 5,7 7,8 12,13 11,11 17,15 31,24 -8,-39 -5,-2 -10,-26 -6,-34 7,-11 37,-50 1,-1 4,-6 8,-10 1,-1 2,-3 3,-4l49 -48c49,-40 26,-48 66,-51 99,-8 123,-9 116,48 -2,13 0,8 -7,19l-62 66c-9,9 -12,9 -17,14l-7 5c-1,1 -2,2 -3,3 -14,16 0,9 -30,32l-32 34c-21,21 -10,-2 -17,22l-41 -7c22,45 214,187 220,219 25,10 37,23 51,46 8,0 6,-1 10,3 17,9 13,8 28,16l-8 -61c1,-33 -12,-56 -9,-95 -18,-20 -58,-370 -70,-385l-503 1c12,16 37,35 49,46 9,9 14,15 24,25 16,15 17,17 35,25z"/>
   <path class="fil0 str0" d="M4038 933c3,-7 -1,-2 9,-11l50 -35c41,-29 178,-127 209,-138l34 -29c24,-17 101,-78 129,-82 -1,-27 -42,-16 -98,-16 -96,0 -269,-4 -348,2l-2 280c2,33 -4,25 17,29z"/>
   <path class="fil0 str0" d="M4282 933c1,22 75,12 95,12 36,0 73,0 110,0 69,0 146,-3 214,0 15,-40 6,-151 6,-200 0,-17 0,-33 0,-49 1,-44 5,-31 -17,-36 -56,44 -138,97 -200,137 -36,25 -65,45 -102,70 -19,13 -85,66 -106,66z"/>
   <path class="fil0 str0" d="M4097 1887c12,1 14,6 25,17 4,4 7,7 10,12 9,13 2,-4 5,11 20,9 6,2 21,14 4,3 11,9 17,13l15 7c-1,-8 -2,-18 -6,-28 24,-7 0,3 13,-6 1,-1 2,-2 3,-3l22 -27c22,-19 173,-10 207,-10l0 9c-15,3 -18,3 -29,14 -14,14 -3,7 -16,21 0,1 -2,2 -3,3 0,1 -2,2 -3,3l-39 40c-1,1 -3,2 -4,3 -45,40 -28,38 -46,45 -17,7 -20,1 -38,1 20,40 91,81 99,110 31,0 32,-10 67,-44 16,-16 37,-35 56,-54 36,-37 65,-61 110,-104 10,-23 3,-11 27,-33 7,-6 11,-11 16,-15 12,-12 3,-5 17,-13 -22,-11 -30,-7 -65,-7 -24,0 -49,0 -73,0l-348 0c-86,-2 -59,-3 -60,21z"/>
   <path class="fil0 str0" d="M627 2548c2,16 20,18 34,16 28,-8 41,-5 71,-5 54,0 53,-32 87,-58 2,-1 6,-4 11,-8l6 -6c13,-14 2,-7 16,-21 16,-16 0,1 17,-13 23,-19 12,-18 29,-32l66 -55 -1 -201c-9,19 0,3 -9,13 -13,15 -13,5 -37,36l-54 55c-1,1 -2,2 -3,3l-37 37c-1,1 -2,2 -3,3 -25,22 -31,5 -31,66 -28,13 -16,5 -37,10 -30,8 -44,36 -57,49l-24 19c-1,1 -7,9 -8,10 -45,58 -45,-5 -36,82z"/>
   <path class="fil0 str0" d="M4438 1306c8,17 37,44 53,47l41 7c7,-24 -4,-1 17,-22l32 -34c30,-23 16,-16 30,-32 1,-1 2,-2 3,-3l7 -5c5,-5 8,-5 17,-14l62 -66c7,-11 5,-6 7,-19 7,-57 -17,-56 -116,-48 -40,3 -17,11 -66,51l-49 48c-1,1 -2,3 -3,4 -4,4 -7,9 -8,10 -30,39 -43,16 -37,50 5,24 2,-13 10,26z"/>
   <path class="fil0 str0" d="M963 1737c-10,22 -18,18 -35,35l-86 86c-1,1 -2,2 -3,3l-46 52c0,2 -1,4 -2,5l-2 36c0,16 0,32 0,49 0,31 0,63 0,94 1,-1 3,-2 5,-3l16 -13c45,-36 21,-21 42,-42l7 -6c40,-33 20,-23 39,-40 10,-9 3,-1 14,-10 18,-15 16,-21 25,-30l27 -14 -1 -202z"/>
   <path class="fil0 str0" d="M789 1456c1,-1 4,-4 5,-3 0,1 6,-5 8,-7 1,-1 3,-2 4,-3 1,-1 3,-2 4,-3 1,-1 2,-2 3,-3l34 -33c1,-1 2,-3 2,-4l30 -25c22,-24 61,-72 87,-78l-3 -201c-9,20 2,3 -11,16 -16,16 0,-1 -17,13l-106 109c-49,59 -40,-24 -40,222z"/>
   <path class="fil0 str0" d="M789 1670c1,-1 4,-5 5,-3 0,1 6,-5 8,-7 1,-1 3,-2 4,-3 1,-1 3,-2 4,-3 1,-1 2,-2 3,-3l34 -33c1,-1 2,-3 2,-4l30 -25c22,-24 61,-72 87,-78l-3 -201c-14,31 -17,11 -44,45l-93 96c-30,33 -38,2 -37,81 0,46 0,92 0,138z"/>
   <path class="fil0 str0" d="M789 1884c1,-1 4,-5 5,-4l143 -141c11,-11 14,-11 29,-14l-3 -202c-14,32 -17,11 -44,46 -22,28 8,-7 -7,10l-81 79c-1,1 -2,2 -2,3 -1,1 -2,3 -3,4l-27 21c-20,22 -10,164 -10,198z"/>
   <path class="fil0 str0" d="M2435 4312l12 3 2 -825c39,-9 1482,-5 1501,1l4 867 11 -2c-24,-124 19,-835 -12,-873 -23,-16 -1162,-7 -1295,-6l-25 0 -187 1c-29,53 7,700 -11,834z"/>
   <path class="fil0 str0" d="M963 1951c-9,19 0,3 -9,13l-137 137c-10,8 -19,10 -24,26l-4 184 123 -114c6,-6 -5,5 7,-6l45 -39 -1 -201z"/>
   <path class="fil0 str0" d="M4190 1961c2,8 0,5 7,13 6,8 4,3 14,17 7,9 10,12 17,20 5,4 5,5 10,8 9,7 6,5 13,7 18,0 21,6 38,-1 18,-7 1,-5 46,-45 1,-1 3,-2 4,-3l39 -40c1,-1 3,-2 3,-3 1,-1 3,-2 3,-3 13,-14 2,-7 16,-21 11,-11 14,-11 29,-14l0 -9c-34,0 -185,-9 -207,10l-22 27c-1,1 -2,2 -3,3 -13,9 11,-1 -13,6 4,10 5,20 6,28z"/>
   <path class="fil0 str0" d="M4568 3489c279,4 566,-2 847,0 21,0 43,4 54,-10 12,-19 9,-558 5,-623l-4 -2c-85,-9 -210,-3 -299,-2 -43,0 -266,8 -285,-6 -19,-5 -7,-4 -28,-16 6,10 9,20 21,26 17,10 242,4 268,4 104,1 216,-4 318,1 0,84 8,578 -5,616 -143,7 -303,1 -448,1l-391 -1c-52,-1 -44,1 -53,12z"/>
   <path class="fil0 str0" d="M4318 1193c3,12 54,60 68,63 52,2 28,5 54,-26l6 -6c2,-2 14,-7 29,-27 22,-28 -7,6 8,-10l20 -16c1,-1 2,-2 3,-3 1,-1 3,-2 4,-3 17,-17 11,-31 47,-39l0 -9c-34,0 -185,-9 -206,10l-19 25c-1,1 -3,2 -3,3 -1,0 -3,2 -4,2 -13,9 11,0 -12,6l5 30z"/>
   <path class="fil0 str0" d="M2193 1788l-45 -2 6 -126c19,10 106,96 117,118l-51 14c25,4 35,1 60,-5 1,-31 -59,-76 -90,-108 -11,-12 -19,-27 -41,-28 -12,26 -16,112 -7,145 36,7 39,0 51,-8z"/>
   <path class="fil0 str0" d="M2894 2105l0 -14c-17,-6 -36,-27 -49,-41 -10,-12 -6,-4 -10,-17l-23 -17c-7,-7 -11,-11 -18,-18 -43,-41 -218,-222 -244,-237 14,26 17,24 39,45l129 127c30,30 55,54 86,86 25,24 60,66 90,86z"/>
   <path class="fil0 str0" d="M4690 660c22,5 18,-8 17,36 0,16 0,32 0,49 0,49 9,160 -6,200l16 -3 -1 -296c-5,1 -10,1 -14,3 -17,10 -2,-3 -12,11z"/>
   <path class="fil0 str0" d="M4686 2043c21,-11 90,-74 101,-98 -20,12 -87,74 -101,98z"/>
   <path class="fil0 str0" d="M4187 2318l67 -60 -2 -19c-1,-1 -2,-1 -3,-2 0,0 -2,-1 -3,-1l-6 -5c-6,-5 -2,-3 -9,-9 -10,-11 -11,-13 -26,-23 11,20 6,12 21,28 14,13 12,8 18,26 -18,26 -30,30 -43,44 -13,13 -7,5 -14,21z"/>
   <path class="fil0 str0" d="M4772 1621c12,20 14,25 39,28 -1,-13 -3,-25 -5,-37 -6,-41 -7,-29 -14,-36l8 61c-15,-8 -11,-7 -28,-16z"/>
   <path class="fil0 str0" d="M3837 2848l0 11c22,-8 65,-51 77,-72 -33,18 -46,52 -77,61z"/>
   <path class="fil0 str0" d="M2960 4614l0 -13c-11,-3 -4,3 -18,-9 -7,-5 -9,-9 -15,-15 -13,-14 -16,-24 -36,-37 7,15 -1,5 13,22 6,8 11,13 17,20 13,13 21,22 39,32z"/>
   <path class="fil0 str0" d="M1143 4569c-9,-14 -10,-13 -20,-22 -13,-12 -5,-2 -14,-19l-17 -10c-1,-1 -2,-2 -3,-3l-15 -9c11,18 18,24 31,36 5,5 11,10 16,14 21,17 4,6 22,13z"/>
   <path class="fil0 str0" d="M4782 4662c-8,-13 -1,-4 -9,-14l-23 -20c-12,-13 -14,-21 -33,-32 7,18 -5,1 13,22 4,4 10,10 14,16 13,12 19,18 38,28z"/>
   <path class="fil0 str0" d="M4009 1150l11 -18c8,8 14,13 23,20 16,15 9,11 28,19 -6,-11 -7,-13 -11,-20 -26,-8 -20,-23 -48,-27l-3 26z"/>
   <path class="fil0 str0" d="M2512 4600c31,-14 61,-46 78,-77l-78 77z"/>
   <path class="fil0 str0" d="M4725 2703c-8,-16 -3,-8 -14,-21 -17,-17 -6,3 -17,-22 -11,-3 -4,0 -15,-7 -11,-7 1,-1 -16,-12 7,15 -2,4 11,18 5,5 11,9 16,14 13,13 16,19 35,30z"/>
   <path class="fil0 str0" d="M4583 1934c24,-16 49,-37 60,-61 -14,8 -5,1 -17,13 -5,4 -9,9 -16,15 -24,22 -17,10 -27,33z"/>
   <path class="fil0 str0" d="M4047 2660c17,-10 20,-15 32,-27 7,-6 10,-8 16,-14 14,-15 6,-3 14,-21 -17,11 -22,18 -35,30 -16,15 -17,12 -27,32z"/>
   <path class="fil0 str0" d="M2815 4749l-76 -80c12,27 52,65 76,80z"/>
   <path class="fil0 str0" d="M1663 875c-6,-10 1,-9 -8,-14l13 0c-7,-8 8,-6 -11,-11 -38,-10 -9,-2 -20,5l26 20z"/>
   <path class="fil0 str0" d="M4959 2716c7,13 0,9 13,17 15,10 4,2 17,4l-7 -31 -2 21 -21 -11z"/>
   <path class="fil0 str0" d="M4211 1991c-10,-14 -8,-9 -14,-17 -7,-8 -5,-5 -7,-13l-15 -7c11,23 14,26 36,37z"/>
  </g>
 </g>
</svg>
