<?xml version="1.0" encoding="UTF-8"?>
<!DOCTYPE svg PUBLIC "-//W3C//DTD SVG 1.1//EN" "http://www.w3.org/Graphics/SVG/1.1/DTD/svg11.dtd">
<!-- Creator: CorelDRAW X7 -->
<svg xmlns="http://www.w3.org/2000/svg" xml:space="preserve" width="61.6898mm" height="49.69mm" version="1.1" style="shape-rendering:geometricPrecision; text-rendering:geometricPrecision; image-rendering:optimizeQuality; fill-rule:evenodd; clip-rule:evenodd"
viewBox="0 0 6169 4969"
 xmlns:xlink="http://www.w3.org/1999/xlink">
 <defs>
  <style type="text/css">
   <![CDATA[
    .fil0 {fill:#0D8DEF}
   ]]>
  </style>
 </defs>
 <g id="Layer_x0020_1">
  <metadata id="CorelCorpID_0Corel-Layer"/>
  <g id="_2295623063056">
   <path class="fil0" d="M2340 2608c244,205 667,622 774,1040 137,538 -289,1006 -790,1001 -496,-4 -908,-467 -775,-1000 60,-241 200,-431 324,-586 70,-87 372,-418 467,-455zm923 -1337c24,-439 368,-878 744,-1075 52,-27 123,-47 167,-84 -132,-50 -220,-101 -392,-75 -189,28 -352,140 -454,279 -39,54 -57,83 -88,146 -70,145 -68,225 -89,391 -89,-91 -56,-138 -270,-306 -102,-80 -235,-141 -389,-175 -297,-64 -709,39 -843,233 383,-10 632,49 926,193 220,107 521,324 641,469 -296,-177 -742,-431 -1152,-175 -144,89 -261,246 -300,470 -29,169 14,547 110,647 207,-616 708,-939 1360,-911 -73,44 -243,86 -342,138 -343,178 -581,433 -553,894 -34,19 -49,15 -86,39l-193 165c-232,201 -507,524 -641,806 -270,571 -57,1104 319,1354 727,486 1667,-58 1632,-890 -9,-220 -149,-583 -260,-687 20,-71 -44,55 14,-15 43,-53 35,-16 21,-73 -9,-35 -24,-71 -34,-108 -61,-241 -90,-491 -86,-743 5,-228 41,-490 131,-698 27,-62 71,-118 87,-174 321,-1 773,323 914,473 264,279 435,467 486,896 116,-105 208,-410 199,-620 -10,-243 -113,-429 -240,-569 -115,-127 -299,-245 -533,-293 -321,-67 -446,12 -716,62 183,-163 840,-352 1231,-178 104,46 216,126 284,213 -5,-343 -308,-818 -790,-748 -309,44 -517,266 -673,485 -49,70 -94,171 -142,244z"/>
   <path class="fil0" d="M4068 3038c47,110 110,220 157,341 159,399 292,819 297,1271l-455 0c7,-444 73,-752 40,-1232 -8,-119 -40,-278 -39,-380zm-279 -933c-71,-105 -451,-692 -500,-739 15,115 420,1060 518,1563 122,633 52,1295 25,1951l924 1c27,-1031 -415,-1951 -967,-2776z"/>
   <path class="fil0" d="M2990 3873c23,-118 14,-272 -139,-234 -107,27 -69,170 -113,275 -41,95 -94,155 -177,209 -116,76 -419,36 -332,232 77,174 669,2 761,-482z"/>
  </g>
 </g>
</svg>
