<?xml version="1.0" encoding="UTF-8"?>
<!DOCTYPE svg PUBLIC "-//W3C//DTD SVG 1.1//EN" "http://www.w3.org/Graphics/SVG/1.1/DTD/svg11.dtd">
<!-- Creator: CorelDRAW X7 -->
<svg xmlns="http://www.w3.org/2000/svg" xml:space="preserve" width="61.6898mm" height="49.69mm" version="1.1" style="shape-rendering:geometricPrecision; text-rendering:geometricPrecision; image-rendering:optimizeQuality; fill-rule:evenodd; clip-rule:evenodd"
viewBox="0 0 6169 4969"
 xmlns:xlink="http://www.w3.org/1999/xlink">
 <defs>
  <style type="text/css">
   <![CDATA[
    .fil0 {fill:#0D8DEF}
   ]]>
  </style>
 </defs>
 <g id="Layer_x0020_1">
  <metadata id="CorelCorpID_0Corel-Layer"/>
  <g id="_2295617486080">
   <path class="fil0" d="M1454 1983c-8,89 68,93 148,93 119,-1 414,-37 337,122 -30,60 -132,42 -199,42 -96,0 -395,-13 -468,2 -59,12 -93,90 -44,139 41,41 144,25 210,25 81,0 166,-3 246,-1 72,3 130,60 85,128 -67,102 -336,-32 -390,84 -86,182 256,77 307,154 44,67 -8,127 -77,131 -74,3 -160,0 -236,0l-717 0c-67,0 -173,-17 -214,26 -49,51 -16,129 51,138l709 1c96,0 412,-40 322,127 -29,53 -126,38 -200,38 -79,0 -157,0 -236,0 -74,0 -157,-10 -170,66 -16,87 55,101 129,100 157,0 315,0 473,0 81,0 170,-12 179,71 10,88 -61,94 -138,93l-946 0c-155,0 -407,-36 -356,114 24,68 120,53 193,53l946 -1c77,0 149,8 136,96 -12,78 -96,69 -169,69l-481 0c-73,0 -166,-15 -201,34 -27,39 -28,129 79,132l473 0c51,-1 151,2 133,97 -14,76 -91,68 -166,67 -129,0 -645,-17 -690,23 -53,47 -26,129 39,141 45,8 1082,2 1182,2l6 -16c75,-335 606,-651 890,-359 104,108 103,206 83,374 290,12 603,1 896,1 70,0 156,16 186,-34 19,-33 529,-2082 594,-2326 40,-154 -80,-119 -307,-119l-2463 0c-87,0 -144,-10 -164,73z"/>
   <path class="fil0" d="M4512 2829c27,-10 387,-11 411,1l432 521c16,20 34,36 23,67 -21,56 -95,41 -164,41 -118,0 -794,8 -848,0 -64,-10 -21,-100 -7,-154l86 -337c17,-62 18,-122 67,-139zm601 1560c73,2 150,1 224,0 37,0 67,-4 99,-15 33,-13 48,-31 75,-37 15,-35 21,-27 45,-55 53,-62 145,-487 168,-574 60,-238 47,-189 -140,-431l-464 -587c-76,-89 -188,-62 -362,-62 -136,0 -289,-7 -423,1l-450 1759 246 1c66,-296 431,-558 733,-473 121,35 216,127 247,250 26,100 -3,147 2,223z"/>
   <path class="fil0" d="M4634 4197c121,-22 210,69 180,191 -63,258 -455,258 -390,1 24,-94 105,-173 210,-192zm9 568c26,-16 92,-40 123,-57 162,-92 185,-193 245,-311 31,-203 -33,-346 -206,-390 -325,-81 -674,296 -574,583 25,73 79,129 142,159 95,46 169,32 270,16z"/>
   <path class="fil0" d="M2242 4196c122,-17 207,76 173,199 -25,90 -112,173 -212,187 -268,36 -225,-348 39,-386zm-423 209c12,104 -33,181 93,301 113,108 243,58 314,68 2,-1 5,-5 6,-4l99 -43c251,-128 407,-454 200,-656 -139,-137 -379,-65 -538,57 -116,90 -157,255 -174,277z"/>
   <path class="fil0" d="M1014 2576c-71,24 -73,117 -16,149 30,18 195,18 234,7 72,-22 74,-123 10,-153 -33,-14 -193,-15 -228,-3z"/>
   <path class="fil0" d="M333 3011c13,-33 -4,-71 -22,-88 -27,-26 -273,-55 -299,33 -30,96 53,112 130,111 81,0 163,20 191,-56z"/>
   <path class="fil0" d="M828 3345c41,-105 -111,-154 -152,-68 -52,111 113,166 152,68z"/>
   <path class="fil0" d="M421 3989c12,99 185,87 162,-31 -18,-96 -176,-85 -162,31z"/>
  </g>
 </g>
</svg>
