<?xml version="1.0" encoding="UTF-8"?>
<!DOCTYPE svg PUBLIC "-//W3C//DTD SVG 1.1//EN" "http://www.w3.org/Graphics/SVG/1.1/DTD/svg11.dtd">
<!-- Creator: CorelDRAW X7 -->
<svg xmlns="http://www.w3.org/2000/svg" xml:space="preserve" width="61.6898mm" height="49.69mm" version="1.1" style="shape-rendering:geometricPrecision; text-rendering:geometricPrecision; image-rendering:optimizeQuality; fill-rule:evenodd; clip-rule:evenodd"
viewBox="0 0 6169 4969"
 xmlns:xlink="http://www.w3.org/1999/xlink">
 <defs>
  <style type="text/css">
   <![CDATA[
    .fil0 {fill:#0D8DEF}
    .fil1 {fill:#0D8DEF}
   ]]>
  </style>
 </defs>
 <g id="Layer_x0020_1">
  <metadata id="CorelCorpID_0Corel-Layer"/>
  <g id="_2295623066320">
   <path class="fil0" d="M2343 516c-15,20 -51,37 -75,46l-51 30 -65 43c-23,13 -45,30 -71,38l-8 3c-14,17 -35,27 -56,40 -21,12 -37,24 -60,31 -9,13 -217,138 -234,140 -17,19 -62,43 -83,51 -8,14 -24,19 -39,21 -14,21 -108,74 -137,84l-8 3c-10,15 -20,16 -30,27 20,19 39,21 53,40 17,2 6,-2 26,10 7,4 15,9 22,14 17,10 34,18 42,28 22,7 20,3 34,22 20,2 12,2 33,14 12,7 15,9 27,16 18,11 39,24 50,33 18,7 27,13 43,23 20,12 20,8 32,25 20,2 37,16 50,26 14,6 242,136 259,159 19,3 79,39 90,51 23,9 21,6 33,23 17,2 92,46 105,61l80 50c20,3 37,16 49,26 43,17 89,67 136,64 8,-11 39,-26 52,-34 11,-6 18,-11 27,-17 20,-11 16,-11 33,-14 13,-17 32,-26 55,-36 14,-11 39,-30 60,-33 15,-18 39,-29 68,-46 22,-14 46,-31 68,-34l125 -78 244 -148 53 -30 71 -44c36,-27 83,-54 124,-78 32,-20 101,-71 128,-80 9,-16 15,-11 9,-29 -18,-8 -13,-6 -20,-17 -15,-1 -105,-55 -110,-65 -26,-10 -70,-31 -84,-53 -15,-2 -33,-8 -39,-21l-261 -156c-21,-3 -90,-45 -102,-58 -21,-8 -14,-3 -24,-18 -19,-2 -14,-1 -34,-13 -10,-6 -17,-11 -27,-17 -16,-9 -41,-22 -52,-32l-84 -50c0,-2 -2,-3 -3,-4 -14,-2 -22,-3 -30,-16 -42,-16 -95,-52 -135,-75 -35,-19 -102,-52 -124,-75 -44,23 -80,43 -120,67 -23,13 -90,59 -115,62z"/>
   <path class="fil0" d="M3569 1377c-14,17 -90,56 -116,72 -29,18 -88,61 -119,65 -12,18 -32,27 -53,37 -8,5 -20,13 -33,20 -2,2 -17,11 -19,12 -13,6 -5,3 -18,5 -16,23 -99,65 -125,80 -38,23 -97,65 -136,78 -6,10 -218,138 -235,140 -6,7 -2,4 -10,10 -1,1 -11,9 -11,9 -12,7 -18,9 -32,14l2 -1 0 1299 43 -24c37,-25 80,-51 121,-74 39,-22 87,-58 127,-74 12,-12 20,-16 38,-19 15,-21 60,-45 86,-55 10,-11 34,-23 50,-33 10,-6 18,-11 27,-16 20,-12 14,-12 33,-14 14,-19 8,-12 30,-20 11,-13 26,-19 41,-28 9,-6 16,-11 23,-14 19,-12 12,-10 29,-12 14,-19 38,-29 60,-41 24,-15 43,-27 65,-40 39,-23 97,-63 137,-78 0,-1 2,-3 2,-2 0,1 2,-2 2,-3l32 -14c16,-22 59,-45 86,-55 10,-12 101,-67 120,-70l-1 -1292c-45,7 -187,117 -246,138z"/>
   <path class="fil0" d="M4828 2748c-13,18 -33,27 -54,36 -8,6 -20,14 -33,21 -17,11 -19,14 -37,17 -19,26 -94,61 -125,80 -41,25 -92,61 -132,76 -7,8 -206,135 -237,140 -12,17 -33,26 -51,36 -15,10 -20,12 -35,21 -18,10 -17,13 -37,17 -25,35 -84,34 -87,76l0 125 -1 119 2 1023c39,-4 153,-98 194,-104 16,-22 96,-63 125,-80 38,-22 98,-63 139,-78 5,-9 14,-14 28,-16 6,-6 4,-5 11,-11l35 -21c20,-12 26,-16 49,-25 7,-13 35,-25 52,-35 11,-7 21,-13 30,-18 20,-12 12,-10 29,-12 5,-11 -8,-5 13,-11 14,-13 37,-24 55,-35 9,-5 19,-12 27,-16 20,-12 11,-10 29,-12 15,-20 105,-69 133,-85 44,-25 92,-61 138,-81 15,-12 51,-26 62,-46l-3 -1281c-21,4 -132,74 -159,89 -27,16 -52,32 -81,49 -21,13 -56,39 -79,42z"/>
   <path class="fil0" d="M1352 2457c18,4 91,53 100,66 20,7 9,-4 21,15 24,4 232,148 238,157 25,9 42,23 64,38l45 30c1,1 2,2 3,3 1,1 3,3 4,4 1,1 3,5 3,4 1,-2 2,2 3,4l-1 -3c37,15 99,62 136,86 20,14 41,29 62,43 23,14 46,28 63,44l102 67c16,7 8,-1 18,16 25,5 234,150 238,157 19,7 18,7 32,17 9,-53 3,-852 3,-978 0,-67 14,-276 -12,-318 -20,-1 -1,12 -19,-7 -39,-17 -97,-55 -134,-78 -24,-15 -41,-24 -66,-40 -20,-13 -45,-22 -59,-41 -21,-4 -223,-125 -233,-137 -17,-7 -94,-48 -108,-66l-17 -7c-32,-13 -238,-135 -251,-155 -25,-3 -39,-18 -64,-33 -21,-12 -42,-24 -62,-37 -38,-23 -85,-48 -116,-72 -15,3 -8,-5 -13,10l0 1079c0,101 -10,93 20,132z"/>
   <path class="fil0" d="M222 3922c42,17 94,59 136,87 30,20 110,64 127,90 15,3 9,0 25,10 0,1 10,7 11,8 10,9 4,5 7,8 18,7 26,15 41,24 7,5 15,9 19,12l14 13c0,-1 2,3 3,4 20,4 96,56 110,69l12 12c18,2 10,0 28,12 12,8 17,12 30,20 16,10 45,25 54,40l74 50 50 31c1,0 2,1 2,2 59,22 126,93 183,109l1 -19 2 -126 0 -662 0 -78 -1 -121 -1 -126 0 -121c-2,-44 -39,-32 -51,-56 -31,-11 -99,-47 -116,-71l-8 -2 -136 -84c-15,-2 -31,-9 -43,-24 -20,-7 -64,-32 -81,-50 -20,-3 -97,-53 -120,-67 -24,-15 -105,-57 -113,-72 -28,-10 -40,-20 -65,-35 -7,-4 -19,-10 -27,-15 -18,-10 -15,-8 -25,-21l-6 -2c-20,-8 -117,-62 -138,-84 -16,-2 -40,-16 -49,-29 -24,-7 -57,-27 -74,-45 -26,-2 -65,-36 -97,-48l1 1204c34,33 214,136 221,153z"/>
   <path class="fil0" d="M1585 3126c-15,15 -216,115 -234,116l-19 514c1,179 2,358 2,537l1 87 3 129 -2 23c42,-3 203,-119 261,-141l18 -9c13,-17 29,-23 49,-35 25,-14 31,-21 56,-29 8,-12 211,-132 228,-134 17,-20 234,-149 266,-161l22 -14 46 -31c17,-10 29,-19 50,-27 37,-31 113,-64 152,-94l1 -93 0 -342c-25,-13 -152,-94 -164,-113 -12,-3 -6,0 -18,-6 0,0 -10,-7 -11,-7 -11,-8 -12,-8 -16,-15 -21,-8 -27,-13 -43,-25 -8,-5 -12,-6 -19,-12 -1,-1 -2,-3 -3,-3l-10 -12c-19,-3 -224,-137 -234,-151 -23,-10 -70,-36 -87,-58 -15,-3 -20,-3 -30,-17 -63,10 -195,99 -265,123z"/>
   <path class="fil0" d="M3213 3094c-16,22 -104,69 -129,84 -36,21 -99,64 -136,77 -15,21 -6,8 -20,11 -9,12 -8,11 -24,20 -8,5 -15,9 -23,14 -19,12 -34,22 -56,30l-160 98 -1 421c5,21 29,16 40,39 24,3 124,61 138,81 19,2 13,2 33,14 11,7 19,11 27,19 22,8 50,23 63,41 20,2 13,1 34,14 10,6 18,11 31,18 20,13 36,23 57,35 34,20 88,48 112,70l123 74c1,-2 3,2 4,3 20,2 113,59 126,76 13,2 5,-1 18,5 4,2 16,9 19,11 13,8 25,15 34,21 11,5 20,11 29,16 16,10 14,8 25,20 40,6 196,127 236,129l1 -33 -1 -1252c-21,-20 -147,-88 -189,-114 -22,-14 -46,-25 -61,-42 -35,-4 -150,-93 -177,-93 -27,0 -139,89 -173,93z"/>
   <path class="fil0" d="M972 1866c-16,23 -96,63 -124,80 -41,24 -92,61 -133,76 -16,21 -4,8 -20,10 -13,18 -28,22 -48,34 -16,11 -29,19 -47,28 -26,19 -214,134 -235,137l-266 163c4,12 1,4 -4,5 5,8 9,12 16,22 25,3 97,53 121,67 20,12 106,58 113,71 44,18 92,52 134,77 24,14 109,59 125,81 18,2 75,38 94,51 6,2 12,5 17,8 13,10 6,5 13,14 21,3 40,19 60,30 16,10 46,23 51,34 22,8 59,28 75,47 17,2 41,17 50,29 26,8 250,142 261,157 26,3 31,3 57,-10 21,-11 35,-22 54,-22l28 -19c49,-26 196,-103 231,-112 10,-11 34,-22 51,-23 6,-6 -1,-4 16,-14 -17,-26 -56,-34 -79,-64 -17,-3 -14,-4 -30,-15 -12,-8 -19,-10 -24,-20 -19,-8 -19,-8 -36,-19 -18,-12 -20,-12 -31,-27 -23,-5 -106,-67 -127,-81 -37,-24 -93,-61 -121,-86 -24,-14 -42,-23 -49,-52l-10 -119 -4 -367 -1 -126 -1 -121 -1 -20c-52,18 -132,90 -176,96z"/>
   <path class="fil0" d="M3935 2660c-13,10 -28,20 -43,30 -9,6 -16,10 -22,14 -20,13 -11,10 -30,13 -13,22 -211,136 -249,159l1 25 98 65c27,9 79,38 95,59 22,3 36,15 52,25 18,8 45,27 58,31 23,5 41,-14 67,-23 5,-6 209,-134 238,-138 13,-17 23,-21 45,-29l83 -50c32,-26 82,-50 122,-74 35,-21 94,-60 128,-73 13,-13 221,-136 237,-138 6,-7 3,-5 10,-11 1,0 10,-8 11,-9 16,-10 17,-9 33,-14 9,-12 51,-38 69,-40l30 -24c26,-15 73,-39 87,-60 -18,-6 -95,-52 -105,-66 -22,-7 -31,-14 -48,-25 -16,-10 -24,-12 -36,-28 -14,-1 -8,3 -25,-9 -20,-12 -8,-2 -12,-11 -40,-15 -100,-57 -138,-79 -29,-16 -108,-58 -125,-80 -20,-4 -32,-14 -53,-26 -15,-10 -37,-21 -46,-30 -20,-8 -14,-4 -24,-18 -23,-4 -40,-18 -61,-31 -19,-11 -40,-20 -49,-33 -23,-7 -68,-33 -84,-52 -19,-2 -30,-10 -40,-22 -61,-19 -149,-96 -212,-122l-3 714c-1,102 7,144 -59,180z"/>
  </g>
  <g id="_2295623062672">
   <path class="fil1" d="M29492 -3700c183,154 499,465 579,778 102,401 -216,751 -590,748 -371,-4 -679,-349 -579,-748 45,-180 149,-322 242,-437 52,-65 278,-313 348,-341zm690 -998c18,-328 275,-657 556,-804 39,-20 92,-35 124,-63 -98,-37 -164,-74 -293,-55 -140,21 -262,105 -338,208 -30,40 -43,62 -66,109 -52,108 -51,168 -67,292 -66,-68 -42,-102 -202,-228 -76,-60 -175,-106 -290,-131 -222,-48 -530,29 -630,174 286,-7 472,36 692,144 164,80 389,242 479,351 -221,-132 -554,-323 -860,-131 -108,67 -196,184 -225,351 -21,127 11,409 82,483 155,-460 529,-701 1017,-680 -55,32 -182,64 -256,103 -256,133 -434,324 -413,668 -25,14 -37,11 -64,29l-144 123c-174,150 -380,392 -479,603 -202,426 -43,824 238,1011 543,363 1245,-44 1219,-665 -7,-164 -112,-435 -194,-513 15,-53 -33,41 10,-12 32,-39 26,-11 16,-54 -7,-26 -18,-53 -25,-80 -46,-181 -68,-367 -64,-555 3,-171 30,-367 97,-522 20,-46 53,-88 65,-130 240,-1 577,241 683,353 197,209 325,349 363,669 86,-78 155,-306 149,-463 -8,-182 -85,-320 -180,-425 -86,-95 -223,-183 -398,-219 -240,-49 -333,9 -534,47 136,-122 627,-263 919,-133 77,34 162,94 212,159 -3,-256 -230,-612 -590,-559 -231,33 -386,199 -503,363 -37,52 -70,127 -106,182z"/>
   <path class="fil1" d="M30783 -3379c36,83 82,165 118,255 118,299 218,613 221,950l-339 0c5,-331 54,-562 30,-921 -7,-89 -30,-207 -30,-284zm-208 -696c-53,-79 -337,-517 -374,-552 12,86 314,791 387,1168 92,472 39,967 19,1457l690 0c20,-769 -309,-1457 -722,-2073z"/>
   <path class="fil1" d="M29978 -2754c17,-88 11,-204 -104,-175 -80,20 -51,127 -84,205 -31,71 -71,116 -133,157 -86,56 -312,26 -248,172 58,131 500,2 569,-359z"/>
   <path class="fil1" d="M30150 -1159c56,8 48,7 57,-45l42 -263c3,71 -10,276 14,312 55,-4 42,-8 41,-75l-2 -328 -78 1 -50 272 -46 -274 -80 2c0,71 0,142 0,213 0,106 -21,197 30,189 25,-14 10,3 18,-25 2,-5 3,-33 3,-39 0,-75 -6,-152 4,-228l47 288z"/>
   <path class="fil1" d="M30555 -1206c-84,22 -70,-46 -70,-117 1,-62 -6,-137 13,-190l54 5c17,58 16,242 3,302zm-123 -24c13,103 134,101 170,40 23,-39 21,-233 14,-288 -13,-110 -140,-111 -174,-37 -18,38 -16,234 -10,285z"/>
   <path class="fil1" d="M29718 -1426c5,-24 7,-21 10,-26 1,3 3,6 4,8l12 54c3,23 6,45 8,68l-48 0 14 -104zm-22 154l64 1c20,143 7,114 61,116 8,-15 4,-1 7,-25l-62 -378 -77 1 -63 401 53 -3 17 -113z"/>
   <path class="fil1" d="M29504 -1374c-1,-44 -7,-104 8,-138 59,1 62,19 61,75 -2,58 -10,68 -69,63zm0 51c100,-14 131,-25 122,-144 -8,-105 -81,-92 -175,-92l6 395c1,-1 2,6 3,8 56,-1 46,7 45,-63 0,-34 -1,-69 -1,-104z"/>
   <path class="fil1" d="M30778 -1157c145,9 146,13 154,-32 -9,-8 -2,-12 -50,-16 -12,-1 -35,1 -50,1l-2 -355 -52 0 0 402z"/>
   <polygon class="fil1" points="29870,-1155 30016,-1158 30017,-1203 29921,-1205 29920,-1558 29866,-1556 "/>
   <path class="fil1" d="M30666 -1272c1,117 -17,117 40,117l13 -404 -44 1c-17,30 -9,234 -9,286z"/>
  </g>
 </g>
</svg>
